<svg width="33" height="33" viewBox="0 0 33 33" fill="none" xmlns="http://www.w3.org/2000/svg">
<circle cx="16.5" cy="16.5" r="16.5" fill="#EAEDF3"/>
<mask id="mask0_123_1282" style="mask-type:luminance" maskUnits="userSpaceOnUse" x="10" y="7" width="14" height="20">
<path d="M10 7H23.2V27H10V7Z" fill="white"/>
</mask>
<g mask="url(#mask0_123_1282)">
<path d="M19.6479 19.525C21.7542 18.5875 23.1922 17.3276 23.1922 15.1583C23.1922 12.1656 20.4542 9.71979 17.0005 9.54688V9.02083C17.4281 8.87344 17.7333 8.49219 17.7333 8.04323C17.7333 7.46719 17.2307 7 16.6104 7C15.9896 7 15.487 7.46719 15.487 8.04323C15.487 8.49219 15.7922 8.87344 16.2198 9.02083V9.54688C12.7667 9.71927 10.0281 12.1656 10.0281 15.1583C10.0281 17.3276 11.4662 18.5875 13.5724 19.525C12.5641 20.3521 11.9245 21.5828 11.9245 22.9573C11.9245 25.4469 14.0224 26.999 16.6104 26.999C19.1979 26.999 21.2958 25.4469 21.2958 22.9573C21.2958 21.5828 20.6563 20.3521 19.6479 19.525ZM13.4125 17.7646C10.9464 17.5615 11.5526 15.1734 11.5526 15.1734C11.7016 13.1354 12.4083 12.6172 12.4083 12.6172C14.0443 11.7188 16.6104 11.8745 16.6104 11.8745C16.6104 11.8745 19.1761 11.7188 20.812 12.6172C20.812 12.6172 21.5188 13.1354 21.6677 15.1734C21.6677 15.1734 22.274 17.5615 19.8083 17.7646H13.4125Z" fill="#3498DB"/>
</g>
<path d="M11.4776 20.8448C11.4776 20.8448 10.4896 20.7661 10.0661 23.1713C10.0661 23.1713 9.69166 25.7818 11.2932 26.0489L11.7 21.5963L11.824 21.0734C11.824 21.0734 11.7818 20.8396 11.4776 20.8448Z" fill="#3498DB"/>
<path d="M21.6974 20.8448C21.3932 20.8396 21.3516 21.0734 21.3516 21.0734L21.4755 21.5963L21.8818 26.0489C23.4839 25.7818 23.1089 23.1713 23.1089 23.1713C22.6854 20.7661 21.6974 20.8448 21.6974 20.8448Z" fill="#3498DB"/>
<path d="M16.6104 16.801C17.0839 16.801 17.4677 16.4443 17.4677 16.0042H15.7526C15.7526 16.4443 16.1365 16.801 16.6104 16.801Z" fill="#3498DB"/>
<path d="M13.849 13.6516C13.4682 13.6516 13.1573 13.9277 13.1333 14.2761H13.1307V14.8042H13.1339C13.162 15.1485 13.4714 15.4204 13.849 15.4204C14.2271 15.4204 14.5365 15.1485 14.5646 14.8042H14.5672V14.2761H14.5651C14.5412 13.9277 14.2302 13.6516 13.849 13.6516Z" fill="#3498DB"/>
<path d="M20.087 14.8042H20.0896V14.2761H20.087C20.063 13.9277 19.7521 13.6516 19.3714 13.6516C18.9906 13.6516 18.6792 13.9277 18.6557 14.2761H18.6531V14.8042H18.6557C18.6844 15.1485 18.9932 15.4204 19.3714 15.4204C19.7495 15.4204 20.0583 15.1485 20.087 14.8042Z" fill="#3498DB"/>
<path d="M11.4776 20.8448C11.4776 20.8448 10.4896 20.7661 10.0661 23.1713C10.0661 23.1713 9.69166 25.7818 11.2932 26.0489L11.7 21.5963L11.824 21.0734C11.824 21.0734 11.7818 20.8396 11.4776 20.8448Z" fill="#3498DB"/>
<path d="M21.6974 20.8448C21.3932 20.8396 21.3516 21.0734 21.3516 21.0734L21.4755 21.5963L21.8818 26.0489C23.4839 25.7818 23.1089 23.1713 23.1089 23.1713C22.6854 20.7661 21.6974 20.8448 21.6974 20.8448Z" fill="#3498DB"/>
<path d="M16.6104 16.801C17.0839 16.801 17.4677 16.4443 17.4677 16.0042H15.7526C15.7526 16.4443 16.1365 16.801 16.6104 16.801Z" fill="#3498DB"/>
<path d="M13.849 13.6516C13.4682 13.6516 13.1573 13.9277 13.1333 14.2761H13.1307V14.8042H13.1339C13.162 15.1485 13.4714 15.4204 13.849 15.4204C14.2271 15.4204 14.5365 15.1485 14.5646 14.8042H14.5672V14.2761H14.5651C14.5412 13.9277 14.2302 13.6516 13.849 13.6516Z" fill="#3498DB"/>
<path d="M20.087 14.8042H20.0896V14.2761H20.087C20.063 13.9277 19.7521 13.6516 19.3714 13.6516C18.9906 13.6516 18.6792 13.9277 18.6557 14.2761H18.6531V14.8042H18.6557C18.6844 15.1485 18.9932 15.4204 19.3714 15.4204C19.7495 15.4204 20.0583 15.1485 20.087 14.8042Z" fill="#3498DB"/>
</svg>
