<svg width="12" height="12" viewBox="0 0 12 12" fill="none" xmlns="http://www.w3.org/2000/svg">
<path d="M6.07697 4.23547C5.40095 4.23547 4.85291 4.86074 4.85291 5.63209C4.85291 6.4034 5.40093 7.0287 6.07697 7.0287C6.75299 7.0287 7.30104 6.40343 7.30104 5.63209C7.30104 4.86074 6.75302 4.23547 6.07697 4.23547ZM6.07697 6.36362C5.72286 6.36362 5.43579 6.03609 5.43579 5.63205C5.43579 5.22802 5.72286 4.90049 6.07697 4.90049C6.43109 4.90049 6.71815 5.22802 6.71815 5.63205C6.71815 6.03609 6.43109 6.36362 6.07697 6.36362Z" fill="#606770"/>
<path d="M10.9587 1.04322L3.00227 0.0124199C2.69348 -0.0376704 2.38061 0.0651834 2.14253 0.295077C1.90447 0.505685 1.75187 0.817875 1.71994 1.15963L1.57423 2.52298H1.12246C0.48128 2.52298 0.000393805 3.17139 0.000393805 3.90295V10.703C-0.0157557 11.4006 0.466804 11.9811 1.07825 11.9996C1.09298 12 1.10773 12.0001 1.12246 11.9999H9.12256C9.76374 11.9999 10.3466 11.4346 10.3466 10.703V10.437C10.5454 10.3932 10.734 10.3026 10.9004 10.171C11.1365 9.94421 11.2877 9.62301 11.323 9.27321L11.9933 2.52298C12.0616 1.78973 11.6004 1.13013 10.9587 1.04322ZM9.76374 10.703C9.76374 11.0688 9.44315 11.3348 9.12256 11.3348H1.12246C0.832859 11.3445 0.591202 11.0845 0.582695 10.7541C0.582249 10.7371 0.582444 10.7201 0.583281 10.703V9.47271L2.84198 7.57733C3.11331 7.33964 3.49549 7.36077 3.74545 7.6272L5.33382 9.22331C5.57503 9.45438 5.87866 9.58355 6.19359 9.58909C6.43982 9.59253 6.68201 9.51771 6.89307 9.37294L9.76377 7.47756V10.703H9.76374ZM9.76374 6.69613L6.58701 8.80766C6.31422 8.99205 5.96895 8.95866 5.72724 8.72454L4.12431 7.11178C3.6649 6.66138 2.99343 6.63376 2.5068 7.04527L0.583281 8.64138V3.90295C0.583281 3.53717 0.801871 3.18803 1.12246 3.18803H9.12256C9.46507 3.20423 9.74168 3.51266 9.76374 3.90295V6.69613ZM11.411 2.43321C11.4108 2.4354 11.4106 2.43763 11.4104 2.43983L10.7255 9.19005C10.7267 9.36508 10.6567 9.53085 10.536 9.63896C10.4777 9.70547 10.3466 9.73872 10.3466 9.77198V3.90295C10.3236 3.14551 9.78661 2.54013 9.12253 2.52298H2.15709L2.28824 1.22614C2.31669 1.05821 2.39364 0.906026 2.50683 0.793848C2.63463 0.693031 2.78915 0.646027 2.94401 0.660825L10.8858 1.70827C11.2063 1.74299 11.4414 2.06755 11.411 2.43321Z" fill="#606770"/>
</svg>
