<svg width="100" height="28" viewBox="0 0 100 28" fill="none" xmlns="http://www.w3.org/2000/svg">
<g clip-path="url(#clip0_2_480)">
<path d="M92.7002 5.45148L85.1395 22.1772L85.3532 22.211L86.0928 22.2954C86.5202 22.2954 86.6517 22.0928 86.9311 21.4515L87.3091 20.6245L88.2295 18.5654C88.361 18.2447 88.5254 18.1435 88.8541 18.1435H96.2176H96.234C96.5627 18.1435 96.7271 18.2447 96.8586 18.5654C97.1544 19.2911 97.4667 20.0169 97.779 20.7257L98.1242 21.5359C98.4365 22.2785 98.5022 22.3122 99.2911 22.2785C99.3569 22.2785 99.4226 22.2616 99.5048 22.2447C99.5541 22.2278 99.6034 22.2278 99.6527 22.211L99.85 22.1772L92.7002 5.45148ZM96.0696 16.7595H89.1664C89.5609 15.6287 91.9277 10.2785 92.6838 8.91139L96.0696 16.7595ZM25.0486 5.65401C22.9612 5.62025 20.8902 6.48101 19.3616 8.01688C17.7838 9.60338 16.9126 11.7468 16.9126 14.0591C16.9126 16.3038 17.7838 18.4979 19.2959 20.0675C20.808 21.6203 22.8461 22.481 25.0321 22.481C29.5685 22.481 33.1352 18.8017 33.1516 14.1097C33.1516 11.7975 32.297 9.63713 30.7355 8.05063C29.2234 6.49789 27.136 5.62025 25.0486 5.65401ZM29.8808 18.9367C28.5824 20.3038 26.8073 21.097 25.0157 21.097C21.7449 21.097 18.2275 18.2616 18.2275 14.0422C18.2275 12.1857 18.9507 10.4304 20.2492 9.09705C21.5312 7.78059 23.2242 7.05485 24.9828 7.05485H24.9993C26.8566 7.05485 28.5824 7.81435 29.8644 9.18144C31.13 10.5316 31.8203 12.3038 31.771 14.076V14.0928C31.8368 15.865 31.1464 17.5865 29.8808 18.9367ZM42.8162 15.1224C43.5722 15.1055 44.279 14.903 44.92 14.5316C46.6294 13.5696 47.4512 12.2363 47.4348 10.4641C47.4183 8.96203 46.7444 7.76371 45.3967 6.80169C44.4927 6.16034 43.3914 5.82279 42.1258 5.80591C40.9096 5.78903 39.6768 5.78903 38.4934 5.80591H37.2278C37.1128 5.80591 36.9977 5.80591 36.8498 5.82278C36.7676 5.82278 36.6854 5.83966 36.6033 5.83966L36.4553 5.85654V22.2447H37.8031V19.6793V14.5992V12.2532V7.24051C37.8524 7.24051 37.9017 7.24051 37.951 7.22363C38.1318 7.20675 38.2798 7.20675 38.4277 7.20675H38.592H41.7807C42.1587 7.20675 42.5696 7.22363 42.9805 7.29114C44.2297 7.49367 45.1501 8.10127 45.7254 9.06329C46.35 10.0928 46.3171 11.1224 45.6596 12.1181C45.1172 12.9283 44.3941 13.4346 43.4736 13.654C42.4381 13.9072 41.3698 13.9072 40.3672 13.9072C40.2028 13.9072 40.0384 13.9072 39.8412 13.9241C39.7426 13.9241 39.644 13.9409 39.5289 13.9409L39.2166 13.9578L39.4139 14.211C39.4796 14.3122 39.5454 14.3966 39.6111 14.4641C39.7097 14.616 39.8083 14.7173 39.8905 14.8354L45.3967 21.6878C45.7583 22.1266 46.0705 22.3291 46.4815 22.3291C46.7116 22.3291 46.9581 22.2616 47.2704 22.1603L47.4841 22.076L46.8924 21.3333L45.9719 20.1857L45.0679 19.0717L44.5749 18.4473C44.4434 18.2785 44.2954 18.1097 44.1639 17.9409C43.8517 17.5527 43.5229 17.1646 43.2271 16.7595C43.0956 16.5907 42.9477 16.4051 42.7997 16.2363C42.5368 15.9156 42.2573 15.5781 42.0108 15.2068C42.0601 15.2068 42.1094 15.1899 42.1587 15.1899C42.3724 15.1561 42.6025 15.1392 42.8162 15.1224ZM55.7351 20.9114H54.7653C54.1408 20.9114 53.4997 20.9283 52.8587 20.8945V14.7848C53.5984 14.7342 54.3544 14.7511 55.0776 14.7511H56.1953L58.6443 14.7342H59.7291H59.8934V13.3671H56.2117H55.6529H54.4037H53.8778C53.5162 13.3671 53.1874 13.384 52.8587 13.3333V7.24051H56.6555H58.7265H59.6962L61.7672 7.22363H61.9315V5.83966H51.5603V22.2447H61.948V20.8945H57.806C57.1157 20.9114 56.4254 20.9114 55.7351 20.9114ZM13.3624 18.5316C12.442 19.6118 11.4065 20.3376 10.2066 20.7426C8.94105 21.1646 7.64258 21.1983 6.36055 20.8439C5.1114 20.4895 4.02661 19.8143 3.13905 18.8017C0.739355 16.0675 0.739355 11.9662 3.15548 9.24895C4.35533 7.89873 6.13045 7.05485 7.93843 7.00422C9.8286 6.95359 11.6202 7.72996 13.1487 9.24895L13.2638 9.36709L14.1842 8.54008L14.0856 8.42194C12.1461 5.95781 8.53014 4.9789 5.48943 6.07595C2.13644 7.29114 -0.0660213 10.5485 -0.000276324 14.1941C0.0983412 18.616 3.10618 21.4177 6.04827 22.211C6.73859 22.3966 7.41247 22.481 8.06992 22.481C10.8148 22.481 13.2309 21.0295 14.365 19.3249L14.4472 19.1899L13.4446 18.4135L13.3624 18.5316ZM76.0503 20.9283H72.0563H70.0017C69.3279 20.9283 68.6704 20.9283 67.9801 20.9114H67.2076V5.87342L67.0596 5.85654C66.9939 5.85654 66.9446 5.83966 66.8953 5.83966C66.7967 5.82278 66.7309 5.82278 66.6487 5.82278C66.5337 5.82278 66.4186 5.82278 66.2707 5.83966C66.205 5.83966 66.1392 5.83966 66.0735 5.85654H65.9255V22.1603L66.057 22.1941C66.3858 22.2785 68.4074 22.3122 70.5277 22.3122C73.026 22.3122 75.6722 22.2616 75.9845 22.1603L76.0996 22.1266L76.0503 20.9283ZM79.5676 0C78.6636 0 77.924 0.759494 77.924 1.67089C77.924 2.58228 78.6636 3.34177 79.5676 3.34177C80.4716 3.34177 81.2113 2.58228 81.2113 1.67089C81.2113 0.759494 80.4716 0 79.5676 0Z" fill="white"/>
<path d="M79.8473 13.5528C79.683 11.6962 79.8638 8.37133 79.9788 6.66669C80.061 5.99159 80.061 5.58652 80.061 5.55277L79.5679 5.53589C79.5679 5.58652 79.535 5.99159 79.4857 6.5823C79.3871 7.3418 79.1899 8.4726 78.7625 9.80593C78.0229 12.0844 78.1708 14.6498 79.157 16.692C80.7184 19.9156 81.606 22.346 81.606 22.3798L82.0662 22.211C82.0498 22.1604 80.061 15.9831 79.8473 13.5528Z" fill="white"/>
</g>
<defs>
<clipPath id="clip0_2_480">
<rect width="99.8667" height="28" fill="white"/>
</clipPath>
</defs>
</svg>
