<svg width="20" height="20" viewBox="0 0 20 20" fill="none" xmlns="http://www.w3.org/2000/svg">
<g clip-path="url(#clip0_306_2342)">
<path d="M9.37748 6.87253C9.70498 6.87253 10.0162 6.92753 10.3187 7.00628L11.3137 6.01253C10.2453 5.56377 9.05407 5.5001 7.94384 5.8324C6.83362 6.16471 5.8733 6.87236 5.22708 7.83435C4.58086 8.79634 4.28888 9.95294 4.40105 11.1064C4.51322 12.2598 5.02258 13.3385 5.84204 14.158C6.6615 14.9774 7.74017 15.4868 8.89362 15.599C10.0471 15.7111 11.2037 15.4191 12.1657 14.7729C13.1277 14.1267 13.8353 13.1664 14.1676 12.0562C14.4999 10.9459 14.4362 9.75476 13.9875 8.68628L12.9925 9.68003C13.0712 9.98253 13.1262 10.295 13.1262 10.6225C13.1262 11.3643 12.9063 12.0893 12.4942 12.706C12.082 13.3228 11.4963 13.8034 10.811 14.0872C10.1257 14.371 9.37165 14.4452 8.64418 14.3004C7.91672 14.1556 7.24854 13.7983 6.72414 13.2737C6.19974 12.7492 5.84269 12.0809 5.69814 11.3533C5.55358 10.6258 5.62802 9.8718 5.91204 9.1866C6.19606 8.5014 6.6769 7.91581 7.29375 7.50391C7.9106 7.092 8.63575 6.87228 9.37748 6.87253Z" fill="white"/>
<path d="M16.4024 8.01631C16.7037 8.82881 16.8774 9.70506 16.8774 10.6226C16.8774 12.6117 16.0873 14.5193 14.6807 15.9259C13.2742 17.3324 11.3666 18.1226 9.37745 18.1226C7.38832 18.1226 5.48067 17.3324 4.07414 15.9259C2.66762 14.5193 1.87745 12.6117 1.87745 10.6226C1.87745 8.63343 2.66762 6.72578 4.07414 5.31926C5.48067 3.91273 7.38832 3.12256 9.37745 3.12256C10.2949 3.12256 11.1712 3.29631 11.9837 3.59756L12.9449 2.63756C11.823 2.13388 10.6072 1.87318 9.37745 1.87256C7.64686 1.87256 5.95514 2.38574 4.51621 3.3472C3.07728 4.30866 1.95577 5.67522 1.2935 7.27408C0.631233 8.87293 0.457953 10.6323 0.795574 12.3296C1.13319 14.0269 1.96655 15.586 3.19026 16.8097C4.41397 18.0335 5.97307 18.8668 7.6704 19.2044C9.36774 19.542 11.1271 19.3688 12.7259 18.7065C14.3248 18.0442 15.6913 16.9227 16.6528 15.4838C17.6143 14.0449 18.1274 12.3531 18.1274 10.6226C18.1268 9.39329 17.8665 8.17803 17.3637 7.05631L16.4024 8.01631Z" fill="white"/>
<path d="M9.65994 9.42869C9.56619 9.40744 9.47744 9.37244 9.37744 9.37244C9.04592 9.37244 8.72798 9.50414 8.49356 9.73856C8.25914 9.97298 8.12744 10.2909 8.12744 10.6224C8.12744 10.954 8.25914 11.2719 8.49356 11.5063C8.72798 11.7407 9.04592 11.8724 9.37744 11.8724C9.70896 11.8724 10.0269 11.7407 10.2613 11.5063C10.4957 11.2719 10.6274 10.954 10.6274 10.6224C10.6274 10.5099 10.5912 10.4099 10.5637 10.3062L14.6337 6.23744H16.2474L19.3724 3.12244H17.4974L17.4874 3.13244C17.4895 3.04763 17.4744 2.96327 17.443 2.88444C17.4116 2.80561 17.3647 2.73393 17.3049 2.67369C17.1905 2.5604 17.0372 2.49512 16.8762 2.49119V0.627441L13.7612 3.75244V5.32744L9.65994 9.42869Z" fill="white"/>
</g>
<defs>
<clipPath id="clip0_306_2342">
<rect width="20" height="20" fill="white"/>
</clipPath>
</defs>
</svg>
