<svg width="336" height="184" viewBox="0 0 336 184" fill="none" xmlns="http://www.w3.org/2000/svg">
<path d="M30.6638 132.724C35.905 132.724 40.4929 133.768 44.4131 135.849C48.3334 137.936 51.3588 140.862 53.5036 144.626C55.6626 148.376 56.742 152.716 56.742 157.637C56.742 162.509 55.6626 166.834 53.5036 170.619C51.3588 174.391 48.3121 177.317 44.3563 179.397C40.4147 181.485 35.8482 182.522 30.6638 182.522H12V132.724H30.6638ZM29.8684 172.011C34.4491 172.011 38.0214 170.762 40.5781 168.262C43.1348 165.762 44.4131 162.225 44.4131 157.637C44.4131 153.035 43.1348 149.47 40.5781 146.928C38.0214 144.371 34.4491 143.092 29.8684 143.092H24.1301V172.011H29.8684Z" fill="#E74C3C"/>
<path d="M100.861 162.097C100.861 163.233 100.79 164.419 100.662 165.648H73.1918C73.3765 168.112 74.1719 169.994 75.5781 171.301C76.9771 172.594 78.6887 173.233 80.7198 173.233C83.7453 173.233 85.8474 171.954 87.0263 169.398H99.9518C99.2842 171.997 98.0911 174.334 96.3725 176.414C94.6467 178.502 92.4806 180.136 89.8671 181.329C87.2678 182.508 84.3631 183.09 81.146 183.09C77.2612 183.09 73.8026 182.266 70.7772 180.619C67.766 178.957 65.4081 176.585 63.7037 173.517C61.9992 170.449 61.147 166.855 61.147 162.722C61.147 158.617 61.9779 155.023 63.6468 151.955C65.33 148.873 67.6878 146.501 70.7203 144.854C73.7458 143.206 77.2257 142.382 81.146 142.382C84.9668 142.382 88.3686 143.192 91.3443 144.797C94.3342 146.388 96.6636 148.681 98.3326 151.671C100.016 154.647 100.861 158.12 100.861 162.097ZM88.4467 158.915C88.4467 156.834 87.7365 155.18 86.3161 153.944C84.8958 152.715 83.1203 152.097 81.0039 152.097C78.9728 152.097 77.2612 152.694 75.8621 153.887C74.456 155.066 73.5966 156.742 73.277 158.915H88.4467Z" fill="#E74C3C"/>
<path d="M129.295 172.239V182.522H123.131C118.735 182.522 115.304 181.457 112.847 179.312C110.383 177.153 109.154 173.645 109.154 168.773V153.007H104.325V142.95H109.154V133.292H121.284V142.95H129.238V153.007H121.284V168.915C121.284 170.094 121.568 170.946 122.136 171.472C122.705 171.983 123.649 172.239 124.977 172.239H129.295Z" fill="#E74C3C"/>
<path d="M173.345 162.097C173.345 163.233 173.274 164.419 173.146 165.648H145.676C145.861 168.112 146.656 169.994 148.062 171.301C149.461 172.594 151.173 173.233 153.204 173.233C156.229 173.233 158.332 171.954 159.51 169.398H172.436C171.768 171.997 170.575 174.334 168.857 176.414C167.131 178.502 164.965 180.136 162.351 181.329C159.752 182.508 156.847 183.09 153.63 183.09C149.745 183.09 146.287 182.266 143.261 180.619C140.25 178.957 137.892 176.585 136.188 173.517C134.483 170.449 133.631 166.855 133.631 162.722C133.631 158.617 134.462 155.023 136.131 151.955C137.814 148.873 140.172 146.501 143.204 144.854C146.23 143.206 149.71 142.382 153.63 142.382C157.451 142.382 160.853 143.192 163.828 144.797C166.818 146.388 169.148 148.681 170.817 151.671C172.5 154.647 173.345 158.12 173.345 162.097ZM160.931 158.915C160.931 156.834 160.221 155.18 158.8 153.944C157.38 152.715 155.604 152.097 153.488 152.097C151.457 152.097 149.745 152.694 148.346 153.887C146.94 155.066 146.081 156.742 145.761 158.915H160.931Z" fill="#E74C3C"/>
<path d="M177.32 162.722C177.32 158.617 178.151 155.023 179.82 151.955C181.503 148.873 183.84 146.501 186.837 144.854C189.848 143.206 193.292 142.382 197.177 142.382C202.134 142.382 206.282 143.682 209.62 146.274C212.95 148.873 215.138 152.538 216.182 157.268H203.285C202.184 154.242 200.082 152.722 196.978 152.722C194.741 152.722 192.959 153.596 191.638 155.336C190.31 157.062 189.649 159.526 189.649 162.722C189.649 165.946 190.31 168.418 191.638 170.136C192.959 171.862 194.741 172.721 196.978 172.721C200.082 172.721 202.184 171.216 203.285 168.205H216.182C215.138 172.828 212.943 176.464 209.591 179.113C206.239 181.769 202.099 183.09 197.177 183.09C193.292 183.09 189.848 182.266 186.837 180.619C183.84 178.957 181.503 176.585 179.82 173.517C178.151 170.449 177.32 166.855 177.32 162.722Z" fill="#E74C3C"/>
<path d="M244.688 172.239V182.522H238.524C234.127 182.522 230.697 181.457 228.24 179.312C225.776 177.153 224.547 173.645 224.547 168.773V153.007H219.718V142.95H224.547V133.292H236.677V142.95H244.631V153.007H236.677V168.915C236.677 170.094 236.961 170.946 237.529 171.472C238.097 171.983 239.042 172.239 240.37 172.239H244.688Z" fill="#E74C3C"/>
<path d="M269.449 183.09C265.565 183.09 262.07 182.266 258.967 180.619C255.878 178.957 253.442 176.585 251.666 173.517C249.905 170.449 249.024 166.855 249.024 162.722C249.024 158.674 249.919 155.094 251.723 151.984C253.52 148.88 255.97 146.501 259.08 144.854C262.205 143.206 265.707 142.382 269.591 142.382C273.469 142.382 276.963 143.206 280.074 144.854C283.199 146.501 285.656 148.88 287.46 151.984C289.257 155.094 290.158 158.674 290.158 162.722C290.158 166.798 289.249 170.385 287.431 173.488C285.613 176.578 283.128 178.957 279.989 180.619C276.842 182.266 273.327 183.09 269.449 183.09ZM269.449 172.579C271.757 172.579 273.725 171.741 275.358 170.051C277.006 168.347 277.83 165.904 277.83 162.722C277.83 159.562 277.034 157.126 275.443 155.421C273.852 153.717 271.899 152.865 269.591 152.865C267.219 152.865 265.252 153.71 263.683 155.393C262.127 157.083 261.353 159.526 261.353 162.722C261.353 165.904 262.12 168.347 263.654 170.051C265.202 171.741 267.134 172.579 269.449 172.579Z" fill="#E74C3C"/>
<path d="M308.747 149.541C310.168 147.368 311.936 145.649 314.06 144.399C316.176 143.149 318.548 142.524 321.162 142.524V155.365H317.809C314.798 155.365 312.533 156.018 311.02 157.325C309.5 158.617 308.747 160.89 308.747 164.143V182.522H296.617V142.95H308.747V149.541Z" fill="#E74C3C"/>
<mask id="mask0_79_1595" style="mask-type:luminance" maskUnits="userSpaceOnUse" x="204" y="72" width="60" height="60">
<path d="M204 72.3871H263.613V132H204V72.3871Z" fill="white"/>
</mask>
<g mask="url(#mask0_79_1595)">
<mask id="mask1_79_1595" style="mask-type:luminance" maskUnits="userSpaceOnUse" x="166" y="-24" width="193" height="193">
<path d="M234.056 -23.1198L358.255 101.079L290.509 168.826L166.309 44.6267L234.056 -23.1198Z" fill="white"/>
</mask>
<g mask="url(#mask1_79_1595)">
<mask id="mask2_79_1595" style="mask-type:luminance" maskUnits="userSpaceOnUse" x="166" y="-24" width="193" height="193">
<path d="M234.056 -23.1198L358.255 101.079L290.509 168.826L166.309 44.6267L234.056 -23.1198Z" fill="white"/>
</mask>
<g mask="url(#mask2_79_1595)">
<mask id="mask3_79_1595" style="mask-type:luminance" maskUnits="userSpaceOnUse" x="201" y="62" width="73" height="73">
<path d="M219.352 62.241L273.726 116.615L256.128 134.212L201.755 79.8388L219.352 62.241Z" fill="white"/>
</mask>
<g mask="url(#mask3_79_1595)">
<path d="M205.78 83.8476C204.748 82.833 204.116 81.4192 204.116 79.8557C204.116 76.7453 206.645 74.2171 209.755 74.2171C216.774 74.2171 223.594 75.5976 229.997 78.3088C236.202 80.9369 241.757 84.6793 246.531 89.453C251.304 94.2267 255.063 99.7821 257.675 105.986C260.386 112.39 261.767 119.21 261.767 126.229C261.767 129.339 259.238 131.867 256.128 131.867C253.001 131.867 250.473 129.339 250.473 126.229C250.473 115.351 246.248 105.121 238.547 97.4369C230.862 89.7358 220.633 85.511 209.755 85.511C208.208 85.511 206.794 84.8789 205.78 83.8476Z" fill="#E74C3C"/>
</g>
</g>
</g>
</g>
<mask id="mask4_79_1595" style="mask-type:luminance" maskUnits="userSpaceOnUse" x="204" y="38" width="94" height="94">
<path d="M204 38.3224H297.677V132H204V38.3224Z" fill="white"/>
</mask>
<g mask="url(#mask4_79_1595)">
<mask id="mask5_79_1595" style="mask-type:luminance" maskUnits="userSpaceOnUse" x="166" y="-24" width="193" height="193">
<path d="M234.056 -23.1204L358.255 101.079L290.509 168.825L166.309 44.6261L234.056 -23.1204Z" fill="white"/>
</mask>
<g mask="url(#mask5_79_1595)">
<mask id="mask6_79_1595" style="mask-type:luminance" maskUnits="userSpaceOnUse" x="166" y="-24" width="193" height="193">
<path d="M234.056 -23.1204L358.255 101.079L290.509 168.825L166.309 44.6261L234.056 -23.1204Z" fill="white"/>
</mask>
<g mask="url(#mask6_79_1595)">
<path d="M287.132 130.203C286.101 129.188 285.469 127.775 285.469 126.228C285.469 84.4787 251.504 50.514 209.755 50.514C206.644 50.514 204.116 47.9858 204.116 44.8588C204.116 41.7484 206.644 39.2202 209.755 39.2202C221.498 39.2202 232.891 41.5155 243.62 46.0563C253.982 50.4475 263.297 56.7181 271.281 64.702C279.264 72.6859 285.535 82.0004 289.926 92.3628C294.467 103.091 296.762 114.485 296.762 126.228C296.762 129.338 294.234 131.866 291.124 131.866C289.56 131.866 288.146 131.234 287.132 130.203Z" fill="#E74C3C"/>
</g>
</g>
</g>
<mask id="mask7_79_1595" style="mask-type:luminance" maskUnits="userSpaceOnUse" x="204" y="0" width="132" height="132">
<path d="M204 0H336V132H204V0Z" fill="white"/>
</mask>
<g mask="url(#mask7_79_1595)">
<mask id="mask8_79_1595" style="mask-type:luminance" maskUnits="userSpaceOnUse" x="166" y="-24" width="193" height="193">
<path d="M234.056 -23.1198L358.255 101.079L290.509 168.826L166.309 44.6267L234.056 -23.1198Z" fill="white"/>
</mask>
<g mask="url(#mask8_79_1595)">
<mask id="mask9_79_1595" style="mask-type:luminance" maskUnits="userSpaceOnUse" x="166" y="-24" width="193" height="193">
<path d="M234.056 -23.1198L358.255 101.079L290.509 168.826L166.309 44.6267L234.056 -23.1198Z" fill="white"/>
</mask>
<g mask="url(#mask9_79_1595)">
</g>
<mask id="mask10_79_1595" style="mask-type:luminance" maskUnits="userSpaceOnUse" x="201" y="-24" width="159" height="159">
<path d="M234.006 -23.0699L359.053 101.977L326.785 134.246L201.738 9.19826L234.006 -23.0699Z" fill="white"/>
</mask>
<g mask="url(#mask10_79_1595)">
<path d="M322.843 130.22C321.812 129.189 321.18 127.775 321.18 126.228C321.18 64.7858 271.198 14.8034 209.755 14.8034C206.645 14.8034 204.116 12.2752 204.116 9.14819C204.116 6.03781 206.645 3.50958 209.755 3.50958C226.322 3.50958 242.389 6.75303 257.525 13.1568C264.794 16.2339 271.813 20.0428 278.366 24.4672C284.87 28.8584 290.974 33.8982 296.53 39.4536C302.085 45.0091 307.125 51.1134 311.516 57.6169C315.94 64.1704 319.749 71.1895 322.827 78.4582C329.23 93.5943 332.474 109.662 332.474 126.228C332.474 129.339 329.946 131.867 326.835 131.867C325.272 131.867 323.858 131.235 322.843 130.22Z" fill="#E74C3C"/>
</g>
</g>
</g>
<path d="M9.82513 69.7929V48.5191" stroke="white" stroke-width="1.46581"/>
<mask id="mask11_79_1595" style="mask-type:luminance" maskUnits="userSpaceOnUse" x="5" y="43" width="10" height="11">
<path d="M5.30609 43.9998H14.3734V53.0671H5.30609V43.9998Z" fill="white"/>
</mask>
<g mask="url(#mask11_79_1595)">
<mask id="mask12_79_1595" style="mask-type:luminance" maskUnits="userSpaceOnUse" x="5" y="43" width="10" height="11">
<path d="M9.83973 43.9998C7.33564 43.9998 5.30609 46.0294 5.30609 48.5335C5.30609 51.0375 7.33564 53.0671 9.83973 53.0671C12.3438 53.0671 14.3734 51.0375 14.3734 48.5335C14.3734 46.0294 12.3438 43.9998 9.83973 43.9998Z" fill="white"/>
</mask>
<g mask="url(#mask12_79_1595)">
<path d="M5.30609 43.9998H14.3734V53.0671H5.30609V43.9998Z" fill="#E74C3C"/>
</g>
</g>
<mask id="mask13_79_1595" style="mask-type:luminance" maskUnits="userSpaceOnUse" x="5" y="43" width="9" height="10">
<path d="M5.30609 43.9998H13.5192V52.2202H5.30609V43.9998Z" fill="white"/>
</mask>
<g mask="url(#mask13_79_1595)">
<mask id="mask14_79_1595" style="mask-type:luminance" maskUnits="userSpaceOnUse" x="5" y="43" width="10" height="11">
<path d="M9.83243 43.9998C7.32834 43.9998 5.30609 46.0221 5.30609 48.5262C5.30609 51.0229 7.32834 53.0525 9.83243 53.0525C12.3292 53.0525 14.3588 51.0229 14.3588 48.5262C14.3588 46.0221 12.3292 43.9998 9.83243 43.9998Z" fill="white"/>
</mask>
<g mask="url(#mask14_79_1595)">
<path d="M9.83243 43.9998C7.32834 43.9998 5.30609 46.0221 5.30609 48.5262C5.30609 51.0229 7.32834 53.0525 9.83243 53.0525C12.3292 53.0525 14.3588 51.0229 14.3588 48.5262C14.3588 46.0221 12.3292 43.9998 9.83243 43.9998Z" stroke="black" stroke-width="136"/>
</g>
</g>
<path d="M26.3404 106.921C21.5293 106.921 17.1198 105.811 13.1118 103.592C9.09648 101.358 5.90614 98.2331 3.53346 94.2178C1.17539 90.2098 0 85.7054 0 80.6972C0 75.6744 1.17539 71.1773 3.53346 67.2058C5.90614 63.2197 9.09648 60.1024 13.1118 57.8611C17.1198 55.6272 21.5293 54.5029 26.3404 54.5029C31.1441 54.5029 35.5536 55.6272 39.5689 57.8611C43.5769 60.1024 46.7308 63.2197 49.0304 67.2058C51.3447 71.1773 52.5055 75.6744 52.5055 80.6972C52.5055 85.7054 51.3374 90.2098 49.0012 94.2178C46.6797 98.2331 43.5258 101.358 39.5397 103.592C35.5463 105.811 31.1441 106.921 26.3404 106.921ZM26.3404 95.5611C30.4287 95.5611 33.6993 94.2032 36.1523 91.4728C38.6053 88.7497 39.8318 85.1579 39.8318 80.6972C39.8318 76.1636 38.6053 72.5498 36.1523 69.8632C33.6993 67.162 30.4287 65.8041 26.3404 65.8041C22.2083 65.8041 18.9084 67.1474 16.4408 69.834C13.9878 72.506 12.7614 76.1271 12.7614 80.6972C12.7614 85.2163 13.9878 88.83 16.4408 91.5312C18.9084 94.2178 22.2083 95.5611 26.3404 95.5611Z" fill="white"/>
<path d="M71.9063 71.4985C73.1109 69.615 74.7827 68.0818 76.9291 66.9138C79.0681 65.7457 81.5722 65.1616 84.434 65.1616C87.7996 65.1616 90.8366 66.0085 93.5451 67.7022C96.2682 69.3959 98.4218 71.8343 99.9988 75.0028C101.59 78.1566 102.393 81.8288 102.393 86.012C102.393 90.2025 101.59 93.8893 99.9988 97.0796C98.4218 100.255 96.2682 102.708 93.5451 104.439C90.8366 106.154 87.7996 107.008 84.434 107.008C81.6087 107.008 79.1192 106.424 76.9583 105.256C74.7973 104.088 73.1109 102.584 71.9063 100.73V125.815H59.437V65.7457H71.9063V71.4985ZM89.6904 86.012C89.6904 82.9019 88.8216 80.4563 87.0914 78.6822C85.3758 76.9155 83.2513 76.0248 80.7253 76.0248C78.2504 76.0248 76.1479 76.9301 74.4177 78.7406C72.6801 80.5366 71.8187 82.9749 71.8187 86.0704C71.8187 89.1877 72.6801 91.648 74.4177 93.4585C76.1479 95.2545 78.2504 96.1451 80.7253 96.1451C83.1929 96.1451 85.3101 95.2399 87.0622 93.4293C88.8143 91.6042 89.6904 89.1293 89.6904 86.012Z" fill="white"/>
<path d="M121.411 71.4985C122.615 69.615 124.287 68.0818 126.433 66.9138C128.572 65.7457 131.076 65.1616 133.938 65.1616C137.304 65.1616 140.341 66.0085 143.049 67.7022C145.772 69.3959 147.926 71.8343 149.503 75.0028C151.095 78.1566 151.898 81.8288 151.898 86.012C151.898 90.2025 151.095 93.8893 149.503 97.0796C147.926 100.255 145.772 102.708 143.049 104.439C140.341 106.154 137.304 107.008 133.938 107.008C131.113 107.008 128.623 106.424 126.463 105.256C124.302 104.088 122.615 102.584 121.411 100.73V125.815H108.941V65.7457H121.411V71.4985ZM139.195 86.012C139.195 82.9019 138.326 80.4563 136.596 78.6822C134.88 76.9155 132.756 76.0248 130.23 76.0248C127.755 76.0248 125.652 76.9301 123.922 78.7406C122.184 80.5366 121.323 82.9749 121.323 86.0704C121.323 89.1877 122.184 91.648 123.922 93.4585C125.652 95.2545 127.755 96.1451 130.23 96.1451C132.697 96.1451 134.814 95.2399 136.566 93.4293C138.319 91.6042 139.195 89.1293 139.195 86.012Z" fill="white"/>
<path d="M200 65.7457L174.477 125.756H161.074L170.389 105.052L153.861 65.7457H167.761L177.193 91.1808L186.509 65.7457H200Z" fill="white"/>
<mask id="mask15_79_1595" style="mask-type:luminance" maskUnits="userSpaceOnUse" x="9" y="65" width="34" height="33">
<path d="M9.83978 65.084H42.079V97.3232H9.83978V65.084Z" fill="white"/>
</mask>
<g mask="url(#mask15_79_1595)">
<path d="M9.83978 81.3935C9.83978 72.3846 17.1403 65.084 26.1419 65.084C35.1508 65.084 42.4513 72.3846 42.4513 81.3935C42.4513 90.395 35.1508 97.6956 26.1419 97.6956C17.1403 97.6956 9.83978 90.395 9.83978 81.3935Z" fill="white"/>
</g>
<path d="M36.0487 85.6714C34.9463 86.7738 33.4132 87.4601 31.7267 87.4601H20.5569C17.1841 87.4601 14.4464 84.7224 14.4464 81.3422C14.4464 79.6558 15.1326 78.13 16.235 77.0203C17.3447 75.9179 18.8705 75.2316 20.5569 75.2316H31.7267C35.1069 75.2316 37.8446 77.9693 37.8446 81.3422C37.8446 83.0359 37.1583 84.5617 36.0487 85.6714ZM37.1364 75.9325C36.4356 75.2316 35.6179 74.6768 34.7054 74.2899C33.7636 73.8956 32.7634 73.6912 31.7267 73.6912H26.5945V72.0632C27.0325 71.8807 27.3464 71.45 27.3464 70.9462C27.3464 70.2819 26.8062 69.7416 26.1418 69.7416C25.4775 69.7416 24.9372 70.2819 24.9372 70.9462C24.9372 71.45 25.2512 71.8807 25.6892 72.0632V73.6912H20.5569C19.5275 73.6912 18.5201 73.8956 17.5783 74.2899C16.6657 74.6768 15.8481 75.2316 15.1472 75.9325C14.4464 76.6334 13.8915 77.451 13.5046 78.3636C13.1031 79.3126 12.9059 80.3128 12.9059 81.3422C12.9059 82.3789 13.1031 83.3791 13.5046 84.3281C13.8915 85.2334 14.4464 86.0584 15.1472 86.7592C15.8481 87.4601 16.6657 88.0149 17.5783 88.3945C18.5201 88.7961 19.5275 89.0005 20.5569 89.0005H20.6518C23.1559 89.0005 25.2658 90.6723 25.9228 92.9574C25.952 93.0523 26.0396 93.118 26.1418 93.118C26.244 93.118 26.3316 93.0523 26.3608 92.9574C27.0252 90.6723 29.1351 89.0005 31.6318 89.0005H31.7267C32.7634 89.0005 33.7636 88.7961 34.7054 88.3945C35.6179 88.0149 36.4356 87.4601 37.1364 86.7592C37.8446 86.0584 38.3921 85.2334 38.7791 84.3281C39.1806 83.3791 39.385 82.3789 39.385 81.3422C39.385 80.3128 39.1806 79.3126 38.7791 78.3636C38.3921 77.451 37.8446 76.6334 37.1364 75.9325Z" fill="#1E4481"/>
<path d="M31.7779 79.1373C30.5295 79.1373 29.522 80.1521 29.522 81.3932C29.522 82.6343 30.5295 83.6491 31.7779 83.6491C33.019 83.6491 34.0265 82.6343 34.0265 81.3932C34.0265 80.1521 33.019 79.1373 31.7779 79.1373Z" fill="#1E4481"/>
<path d="M20.557 79.1373C19.3159 79.1373 18.3084 80.1521 18.3084 81.3932C18.3084 82.6343 19.3159 83.6491 20.557 83.6491C21.8054 83.6491 22.8128 82.6343 22.8128 81.3932C22.8128 80.1521 21.8054 79.1373 20.557 79.1373Z" fill="#1E4481"/>
</svg>
