<svg width="18" height="21" viewBox="0 0 18 21" fill="none" xmlns="http://www.w3.org/2000/svg">
<path fill-rule="evenodd" clip-rule="evenodd" d="M11.6561 3.67497C11.6561 2.19763 10.4585 1 8.98116 1C7.50381 1 6.30618 2.19763 6.30618 3.67497H11.6561Z" stroke="#1E4481" stroke-width="1.5" stroke-linecap="round" stroke-linejoin="round"/>
<path d="M5.49904 11.1695C5.20615 10.8767 4.73128 10.8767 4.43838 11.1695C4.14549 11.4624 4.14549 11.9373 4.43838 12.2302L5.49904 11.1695ZM7.64369 14.3748L7.11336 14.9052C7.40625 15.1981 7.88113 15.1981 8.17402 14.9052L7.64369 14.3748ZM13.524 9.55523C13.8169 9.26234 13.8169 8.78746 13.524 8.49457C13.2311 8.20168 12.7562 8.20168 12.4633 8.49457L13.524 9.55523ZM11.6562 2.92493C11.2419 2.92493 10.9062 3.26071 10.9062 3.67493C10.9062 4.08914 11.2419 4.42493 11.6562 4.42493V2.92493ZM13.8857 3.67493V4.42493C13.8938 4.42493 13.9018 4.4248 13.9098 4.42454L13.8857 3.67493ZM16.3374 5.96738H17.0874C17.0874 5.95864 17.0872 5.94991 17.0869 5.94118L16.3374 5.96738ZM16.3374 17.431L17.0869 17.4568C17.0872 17.4482 17.0874 17.4396 17.0874 17.431H16.3374ZM13.8857 19.7248L13.9098 18.9752C13.9018 18.9749 13.8938 18.9748 13.8857 18.9748V19.7248ZM4.07661 19.7248V18.9748C4.06858 18.9748 4.06055 18.9749 4.05252 18.9752L4.07661 19.7248ZM1.625 17.4323H0.875C0.875 17.4411 0.875153 17.4498 0.875458 17.4585L1.625 17.4323ZM1.625 5.96738L0.875458 5.94118C0.875153 5.94991 0.875 5.95864 0.875 5.96738H1.625ZM4.07661 3.67493L4.05252 4.42454C4.06055 4.4248 4.06858 4.42493 4.07661 4.42493V3.67493ZM6.3062 4.42493C6.72042 4.42493 7.0562 4.08914 7.0562 3.67493C7.0562 3.26071 6.72042 2.92493 6.3062 2.92493V4.42493ZM4.43838 12.2302L7.11336 14.9052L8.17402 13.8445L5.49904 11.1695L4.43838 12.2302ZM8.17402 14.9052L13.524 9.55523L12.4633 8.49457L7.11336 13.8445L8.17402 14.9052ZM11.6562 4.42493H13.8857V2.92493H11.6562V4.42493ZM13.9098 4.42454C14.806 4.39574 15.5565 5.09751 15.5878 5.99358L17.0869 5.94118C17.0267 4.21883 15.5842 2.86995 13.8617 2.92531L13.9098 4.42454ZM15.5874 5.96738V17.431H17.0874V5.96738H15.5874ZM15.5878 17.4052C15.557 18.3016 14.8063 19.004 13.9098 18.9752L13.8617 20.4744C15.5848 20.5297 17.0277 19.1798 17.0869 17.4568L15.5878 17.4052ZM13.8857 18.9748H4.07661V20.4748H13.8857V18.9748ZM4.05252 18.9752C3.15636 19.004 2.40587 18.3022 2.37454 17.4061L0.875458 17.4585C0.935668 19.1809 2.3782 20.5297 4.10071 20.4744L4.05252 18.9752ZM2.375 17.4323V5.96738H0.875V17.4323H2.375ZM2.37454 5.99358C2.40587 5.09751 3.15636 4.39574 4.05252 4.42454L4.10071 2.92531C2.3782 2.86995 0.935668 4.21883 0.875458 5.94118L2.37454 5.99358ZM4.07661 4.42493H6.3062V2.92493H4.07661V4.42493Z" fill="#1E4481"/>
</svg>
