<svg width="27" height="25" viewBox="0 0 27 25" fill="none" xmlns="http://www.w3.org/2000/svg">
<path fill-rule="evenodd" clip-rule="evenodd" d="M15.5819 18.0877C15.6107 18.7161 15.1263 19.2495 14.4981 19.2812H12.3134C11.6852 19.2495 11.2008 18.7161 11.2296 18.0877V15.7699C8.14955 14.6397 6.40188 11.3841 7.16187 8.19237C7.92186 5.00069 10.9492 2.88209 14.2081 3.26125C17.4671 3.64041 19.9272 6.39744 19.9341 9.67835C19.9255 12.4275 18.1798 14.8708 15.5819 15.7699V18.0877Z" stroke="#789DC9" stroke-width="1.5" stroke-linecap="round" stroke-linejoin="round"/>
<path d="M15.5819 16.52C15.9961 16.52 16.3319 16.1842 16.3319 15.77C16.3319 15.3557 15.9961 15.02 15.5819 15.02V16.52ZM11.2284 15.02C10.8142 15.02 10.4784 15.3557 10.4784 15.77C10.4784 16.1842 10.8142 16.52 11.2284 16.52V15.02ZM25.8103 10.4284C26.2245 10.4284 26.5603 10.0926 26.5603 9.67836C26.5603 9.26415 26.2245 8.92836 25.8103 8.92836V10.4284ZM23.1987 8.92836C22.7845 8.92836 22.4487 9.26415 22.4487 9.67836C22.4487 10.0926 22.7845 10.4284 23.1987 10.4284V8.92836ZM3.61161 10.4284C4.02582 10.4284 4.36161 10.0926 4.36161 9.67836C4.36161 9.26415 4.02582 8.92836 3.61161 8.92836V10.4284ZM1 8.92836C0.585786 8.92836 0.25 9.26415 0.25 9.67836C0.25 10.0926 0.585786 10.4284 1 10.4284V8.92836ZM22.7044 1.53371C22.9992 1.24269 23.0022 0.767826 22.7112 0.473068C22.4202 0.17831 21.9453 0.175277 21.6506 0.466293L22.7044 1.53371ZM19.7989 2.29442C19.5042 2.58543 19.5011 3.0603 19.7922 3.35506C20.0832 3.64981 20.558 3.65285 20.8528 3.36183L19.7989 2.29442ZM7.01208 17.0629C7.30643 16.7714 7.30879 16.2966 7.01736 16.0022C6.72592 15.7079 6.25106 15.7055 5.95671 15.997L7.01208 17.0629ZM4.1103 17.8251C3.81596 18.1165 3.81359 18.5914 4.10503 18.8857C4.39646 19.1801 4.87133 19.1824 5.16567 18.891L4.1103 17.8251ZM21.6538 18.891C21.9481 19.1824 22.423 19.1801 22.7144 18.8857C23.0058 18.5914 23.0035 18.1165 22.7091 17.8251L21.6538 18.891ZM20.8627 15.997C20.5684 15.7055 20.0935 15.7079 19.8021 16.0022C19.5107 16.2966 19.513 16.7714 19.8074 17.0629L20.8627 15.997ZM5.95744 3.36183C6.2522 3.65285 6.72706 3.64981 7.01808 3.35506C7.3091 3.0603 7.30606 2.58543 7.0113 2.29442L5.95744 3.36183ZM5.15968 0.466293C4.86492 0.175277 4.39005 0.17831 4.09904 0.473068C3.80802 0.767826 3.81105 1.24269 4.10581 1.53371L5.15968 0.466293ZM15.5819 15.02H11.2284V16.52H15.5819V15.02ZM25.8103 8.92836H23.1987V10.4284H25.8103V8.92836ZM3.61161 8.92836H1V10.4284H3.61161V8.92836ZM21.6506 0.466293L19.7989 2.29442L20.8528 3.36183L22.7044 1.53371L21.6506 0.466293ZM5.95671 15.997L4.1103 17.8251L5.16567 18.891L7.01208 17.0629L5.95671 15.997ZM22.7091 17.8251L20.8627 15.997L19.8074 17.0629L21.6538 18.891L22.7091 17.8251ZM7.0113 2.29442L5.15968 0.466293L4.10581 1.53371L5.95744 3.36183L7.0113 2.29442Z" fill="#789DC9"/>
<circle cx="21.1094" cy="18.6719" r="5.48438" fill="white"/>
<path fill-rule="evenodd" clip-rule="evenodd" d="M20.6828 22.9375C20.4594 22.9375 20.2689 22.7758 20.2325 22.5554C20.199 22.3771 20.0706 22.2314 19.8979 22.1758C19.7572 22.1275 19.6197 22.0705 19.486 22.0052C19.327 21.9238 19.1362 21.936 18.9888 22.0368C18.8103 22.1651 18.5653 22.1453 18.4098 21.9899L17.8053 21.3854C17.6427 21.2227 17.6215 20.9662 17.7554 20.7791C17.8586 20.6283 17.8735 20.4338 17.7944 20.269C17.7423 20.1546 17.6963 20.0374 17.6567 19.918C17.5999 19.7299 17.4432 19.589 17.2502 19.5524C17.0174 19.5152 16.8456 19.3153 16.8438 19.0795V18.3233C16.8425 18.0516 17.0388 17.8192 17.3069 17.7749C17.5103 17.7362 17.6801 17.5969 17.7578 17.405C17.781 17.351 17.8053 17.2973 17.8309 17.2441C17.9343 17.0451 17.92 16.8054 17.7938 16.6201C17.6359 16.4007 17.6601 16.0992 17.8511 15.9078L18.2953 15.4635C18.5144 15.2443 18.8599 15.216 19.1118 15.3965L19.1259 15.4062C19.314 15.5328 19.5533 15.5558 19.7621 15.4672C19.9853 15.3868 20.1499 15.1949 20.1953 14.962L20.2014 14.9413C20.2516 14.6329 20.5179 14.4064 20.8303 14.4063H21.3665C21.6874 14.4061 21.9612 14.6382 22.0137 14.9547L22.0234 14.9973C22.0665 15.2205 22.2226 15.4051 22.4354 15.4848C22.6405 15.5729 22.8764 15.5499 23.0606 15.4239L23.0911 15.402C23.3495 15.2157 23.7049 15.2444 23.9302 15.4696L24.3391 15.8791C24.544 16.0852 24.5698 16.4092 24.4 16.6451C24.267 16.8422 24.25 17.0956 24.3555 17.3087L24.3817 17.3696C24.4672 17.5777 24.6519 17.7286 24.8729 17.7706C25.1617 17.8177 25.3741 18.0667 25.375 18.3593V19.0375C25.3749 19.2955 25.1883 19.5156 24.9338 19.5579C24.7245 19.598 24.554 19.7496 24.4896 19.9528C24.4611 20.034 24.4295 20.1153 24.3945 20.1965C24.3132 20.3751 24.3312 20.5831 24.4421 20.745C24.5883 20.9484 24.5656 21.2278 24.3884 21.4049L23.8211 21.9729C23.6589 22.1351 23.403 22.156 23.2166 22.0222C23.061 21.9159 22.8594 21.9042 22.6925 21.9918C22.5736 22.0507 22.4516 22.1029 22.3269 22.1484C22.1526 22.2085 22.0241 22.3577 21.9905 22.539C21.955 22.767 21.7594 22.9358 21.5286 22.9375H20.6828Z" stroke="#789DC9" stroke-width="0.5" stroke-linecap="round" stroke-linejoin="round"/>
<path fill-rule="evenodd" clip-rule="evenodd" d="M22.531 18.6719C22.531 19.457 21.8945 20.0935 21.1094 20.0935C20.3242 20.0935 19.6877 19.457 19.6877 18.6719C19.6877 17.8867 20.3242 17.2502 21.1094 17.2502C21.8945 17.2502 22.531 17.8867 22.531 18.6719Z" stroke="#789DC9" stroke-width="0.5" stroke-linecap="round" stroke-linejoin="round"/>
</svg>
