<svg width="20" height="22" viewBox="0 0 20 22" fill="none" xmlns="http://www.w3.org/2000/svg">
<path d="M10.0242 3.00434e-05C9.89374 0.00241776 9.79034 0.108373 9.79274 0.236713V1.99258C9.78824 2.1242 9.89494 2.23374 10.0278 2.23374C10.16 2.23374 10.2661 2.1242 10.2622 1.99258V0.236713C10.2649 0.10509 10.157 -0.00205921 10.0242 3.00434e-05ZM7.71788 0.302077C7.55948 0.298495 7.44316 0.448921 7.48644 0.599348L7.94451 2.29552C7.97487 2.42386 8.10532 2.50206 8.23457 2.46834C8.36231 2.43431 8.43655 2.30119 8.39778 2.17584L7.9397 0.479066C7.91386 0.376693 7.82338 0.30536 7.71788 0.302077ZM5.54563 1.19031C5.36829 1.19628 5.26159 1.39088 5.35326 1.5425L6.23845 3.06407C6.30067 3.17928 6.44735 3.22017 6.56247 3.1548C6.67669 3.08855 6.71396 2.94289 6.64483 2.82948L5.76054 1.3094C5.71726 1.23239 5.6349 1.18702 5.54563 1.19031ZM13.4087 1.87469C12.9286 1.87708 12.4297 1.93438 11.9154 2.05317L12.4685 4.09915C12.5728 4.02573 12.6927 3.96872 12.8231 3.93499C12.971 3.8953 13.1201 3.88813 13.2632 3.90813C13.6918 3.96752 14.0663 4.27524 14.185 4.71607C14.3434 5.30256 13.99 5.91113 13.3981 6.06842C13.268 6.10215 13.1366 6.11259 13.0083 6.10125L13.5674 8.17051L15.5842 7.63417C15.791 7.53746 16.0014 7.76131 15.8896 7.95949C15.8888 7.96188 15.8873 7.96417 15.8851 7.96636C15.8027 8.10873 15.7748 8.27885 15.8217 8.45047C15.9142 8.79311 16.2632 8.99367 16.6083 8.90145C16.9533 8.80952 17.1541 8.463 17.0627 8.12037C17.0158 7.94905 16.9052 7.81504 16.7634 7.73326C16.7608 7.73206 16.7588 7.73087 16.7573 7.72967C16.7549 7.72868 16.7529 7.72759 16.7513 7.72639C16.5659 7.6085 16.6305 7.32525 16.849 7.29839L18.7745 6.78653C18.7228 6.27376 18.6323 5.80249 18.4751 5.3527C18.4198 5.37359 18.3636 5.3909 18.305 5.40732C17.3807 5.65325 16.424 5.10438 16.1763 4.1866C16.0378 3.67264 16.1493 3.14794 16.4369 2.74322C15.5893 2.18509 14.5559 1.87141 13.4077 1.87588L13.4087 1.87469ZM17.8445 2.47878C17.7402 2.48117 17.6332 2.4937 17.5277 2.52295C16.8478 2.70382 16.4475 3.39029 16.6293 4.06542C16.8127 4.73935 17.504 5.13691 18.1839 4.95604C18.8638 4.77547 19.2629 4.08751 19.0811 3.41387C18.9449 2.90768 18.5208 2.55668 18.0312 2.49042C17.9701 2.48226 17.9079 2.47828 17.8448 2.47848M3.70281 2.59966C3.49121 2.59966 3.38811 2.85485 3.5396 3.0008L4.78999 4.24241C4.88257 4.33434 5.03045 4.33434 5.12363 4.24241C5.215 4.15138 5.215 4.00453 5.12363 3.91231L3.87143 2.67129C3.82695 2.62592 3.76593 2.60026 3.70251 2.60026M18.3402 2.9608C18.5208 2.96468 18.6302 3.16286 18.5361 3.31657L17.9494 4.3033C17.8848 4.41283 17.7438 4.45014 17.6323 4.38836L17.1664 4.1272C17.0513 4.06453 17.0089 3.92096 17.0733 3.80665C17.1382 3.69353 17.2837 3.65384 17.3979 3.7201L17.6618 3.86843L18.1313 3.07899C18.1737 3.00557 18.2536 2.96021 18.3405 2.9614M9.79034 3.47237C6.03316 3.59832 3.83897 6.61789 4.39894 9.81117H6.0016C5.95712 9.69119 5.93337 9.56285 5.93337 9.42884C5.93337 8.82146 6.43383 8.32452 7.0455 8.32452C7.65716 8.32452 8.15732 8.82146 8.15732 9.42884C8.15732 9.56314 8.13267 9.69119 8.08909 9.81117H9.79395C9.78343 8.89608 9.80236 7.61238 9.80597 7.24616V7.23333C9.81168 7.10976 9.91388 7.01187 10.0383 7.01067C10.1098 7.00948 10.1781 7.04112 10.2226 7.09723C10.3377 7.20318 10.4901 7.26855 10.6605 7.26855C11.0185 7.26855 11.3028 6.9862 11.3028 6.63192C11.3028 6.27615 11.0185 5.9941 10.6605 5.9941C10.482 5.9941 10.3236 6.06514 10.206 6.18064C10.204 6.18402 10.2013 6.18671 10.1979 6.1887C10.1969 6.18989 10.1953 6.19109 10.1931 6.19228C10.1887 6.19666 10.184 6.20064 10.179 6.20422C10.1726 6.2088 10.1664 6.21298 10.1603 6.21676H10.1591C10.0019 6.30779 9.80447 6.19467 9.80567 6.0138C9.80567 5.49626 9.79966 4.14511 9.79064 3.47088L9.79034 3.47237ZM2.29011 4.4397C2.04364 4.43044 1.95197 4.75696 2.16688 4.87695L3.6992 5.75443C3.97032 5.90725 4.20417 5.50611 3.93395 5.35001L2.40163 4.47193C2.36886 4.45223 2.33009 4.44059 2.29041 4.4394M1.38268 6.57999C1.10916 6.58685 1.06587 6.97396 1.33128 7.04052L3.04065 7.49508C3.34032 7.57089 3.45995 7.12678 3.16178 7.0441L1.45211 6.58924C1.42967 6.58267 1.40632 6.57959 1.38268 6.57999ZM7.0458 8.79042C6.68811 8.79042 6.40377 9.07396 6.40377 9.42824C6.40377 9.60553 6.47531 9.76252 6.59163 9.87952L6.59854 9.88638C6.60355 9.89116 6.60786 9.89663 6.61147 9.9028C6.61227 9.903 6.61307 9.90379 6.61387 9.90518C6.61788 9.90936 6.62099 9.91434 6.62319 9.92011L6.6268 9.92488C6.6302 9.92946 6.63291 9.93414 6.63491 9.93891L6.63852 9.94578C6.64112 9.95075 6.64313 9.95582 6.64453 9.961L6.64784 9.96786C6.64984 9.97383 6.65184 9.9797 6.65385 9.98547V9.98905C6.65625 9.99502 6.65745 10.0008 6.65745 10.0064C6.65866 10.0088 6.65866 10.0099 6.65866 10.0123C6.65956 10.0183 6.65956 10.0228 6.66076 10.0288V10.0601C6.65986 10.0613 6.65986 10.0637 6.65986 10.0649C6.65966 10.0708 6.65886 10.0774 6.65745 10.0846C6.65625 10.0914 6.65385 10.0986 6.65265 10.1066L6.64573 10.129C6.64493 10.1302 6.64413 10.1309 6.64333 10.1311C6.63832 10.1451 6.63161 10.158 6.62319 10.1699C6.61988 10.1768 6.61507 10.1825 6.61026 10.1896C6.56458 10.2454 6.49665 10.2783 6.42391 10.2771H4.47469C4.4795 10.2944 4.4828 10.3108 4.48761 10.3272C4.95621 12.0643 5.90602 13.1426 6.76777 14.0601C7.19849 14.5198 7.60847 14.9358 7.91957 15.3811C8.18377 15.7602 8.34698 16.1786 8.39868 16.6356H9.79335C9.79335 15.7145 9.79094 14.7878 9.79094 13.8655C9.67011 13.9097 9.53996 13.9342 9.4047 13.9342C8.79303 13.9342 8.29288 13.4375 8.29288 12.8301C8.29288 12.2228 8.79303 11.7261 9.405 11.7261C9.53996 11.7261 9.67011 11.7506 9.79094 11.7948L9.79335 10.2771H7.66017C7.65175 10.2769 7.64354 10.2761 7.63552 10.2747H7.63432L7.61328 10.2711H7.61088C7.60466 10.2697 7.59915 10.2677 7.59434 10.2651L7.58713 10.2642L7.5721 10.2571L7.56609 10.2547L7.54866 10.2457C7.54786 10.2445 7.54705 10.244 7.54625 10.2442L7.52972 10.2338C7.52952 10.2326 7.52872 10.2314 7.52732 10.2302C7.52271 10.227 7.518 10.2231 7.51319 10.2186C7.51219 10.2174 7.51068 10.2163 7.50868 10.2153L7.49666 10.2034C7.49465 10.2024 7.49315 10.2013 7.49215 10.2001C7.48834 10.1955 7.48524 10.1915 7.48283 10.1881C7.48023 10.1861 7.47822 10.1839 7.47682 10.1813L7.46991 10.1708L7.4639 10.1616C7.46149 10.158 7.45949 10.1545 7.45788 10.1511C7.45608 10.1475 7.45418 10.1441 7.45217 10.1407L7.44857 10.1287L7.44526 10.1198C7.44406 10.115 7.44165 10.1102 7.44045 10.1055C7.44045 10.1034 7.43925 10.0995 7.43805 10.0965C7.43765 10.0927 7.43724 10.0891 7.43684 10.0858C7.43594 10.081 7.43594 10.0777 7.43474 10.0729V10.0649C7.43374 10.0599 7.43334 10.0548 7.43354 10.0496V10.0264C7.43474 10.024 7.43474 10.0204 7.43474 10.018C7.43474 10.0135 7.43594 10.0076 7.43684 10.0031V9.99711C7.43785 9.99114 7.43945 9.98527 7.44165 9.9795C7.44145 9.9795 7.44185 9.97881 7.44286 9.97741C7.44426 9.97125 7.44626 9.96498 7.44887 9.95861C7.44977 9.95622 7.45097 9.95503 7.45217 9.95264C7.45458 9.94787 7.45698 9.94249 7.45939 9.93652L7.46149 9.93414C7.47231 9.91444 7.48524 9.89563 7.50147 9.88041C7.61779 9.76521 7.68933 9.60672 7.68933 9.42943C7.68933 9.07486 7.40408 8.79281 7.0473 8.79281L7.0458 8.79042ZM2.8591 8.87787H1.08661C0.954061 8.87309 0.84375 8.97935 0.84375 9.11097C0.84375 9.24409 0.954061 9.35004 1.08661 9.34527H2.85609C2.98895 9.35004 3.09926 9.24528 3.10046 9.11336C3.10046 8.98174 2.99105 8.87459 2.8585 8.87787M10.2625 10.2771L10.2589 12.2147V12.2275C10.2529 12.4526 9.96197 12.5388 9.83152 12.3559C9.7188 12.2544 9.57002 12.1926 9.4041 12.1926C9.04612 12.1926 8.76208 12.4747 8.76208 12.8301C8.76208 13.1847 9.04612 13.4668 9.4041 13.4668C9.56972 13.4668 9.7176 13.4062 9.83152 13.3047C9.96317 13.1182 10.2589 13.2092 10.2589 13.4375V13.4471C10.2589 14.5066 10.2625 15.5748 10.2637 16.6356H11.6515C11.7032 16.1798 11.8649 15.7646 12.1282 15.3904C12.4381 14.951 12.8457 14.5406 13.2752 14.0861C14.1348 13.1776 15.0835 12.1004 15.5626 10.3272C15.5671 10.312 15.5695 10.292 15.5731 10.2771H14.0537C14.0982 10.3971 14.1228 10.5254 14.1228 10.6591C14.1228 11.2668 13.6218 11.7634 13.011 11.7634C12.3993 11.7634 11.898 11.2668 11.898 10.6591C11.898 10.5254 11.9226 10.3971 11.9671 10.2771H10.2625ZM3.10287 10.72C3.08183 10.72 3.06048 10.7236 3.03944 10.7281L1.33068 11.1835C1.20384 11.2163 1.12749 11.3444 1.16146 11.47C1.19572 11.5963 1.32587 11.6697 1.45151 11.6345L3.16118 11.1799C3.42989 11.1122 3.37939 10.7194 3.10226 10.7206M3.82665 12.4368C3.78186 12.4356 3.73738 12.4472 3.6986 12.4696L2.16628 13.3471C2.04995 13.4104 2.00787 13.556 2.0749 13.6703C2.14043 13.7846 2.28831 13.8207 2.40102 13.7518L3.93335 12.874C4.14105 12.7585 4.065 12.4448 3.82665 12.4368ZM4.9514 13.9103C4.89038 13.9127 4.83267 13.9371 4.78909 13.9816L3.5387 15.2232C3.44251 15.3128 3.44011 15.4647 3.53299 15.5578C3.62707 15.6512 3.77946 15.6488 3.87113 15.553L5.12272 14.3114C5.27662 14.1634 5.16631 13.9046 4.9514 13.9103ZM8.14349 17.1027C7.92317 17.1027 7.75155 17.2728 7.75155 17.4919C7.75155 17.7112 7.92287 17.8802 8.14379 17.8802H11.9034C12.124 17.8802 12.2941 17.7112 12.2941 17.4922C12.2941 17.2728 12.124 17.1027 11.9034 17.1027H8.14349ZM8.21774 18.3467L8.23998 20.1792C8.2505 21.1588 9.03049 21.9375 10.0224 21.9375C11.0143 21.9375 11.7928 21.1585 11.8048 20.1795L11.8282 18.3467H8.21774ZM9.1393 19.9169H10.9076C11.038 19.916 11.145 20.0208 11.145 20.1503C11.145 20.2795 11.038 20.3846 10.9076 20.3834H9.1393C9.00795 20.3846 8.90214 20.2795 8.90214 20.1503C8.90214 20.0208 9.00795 19.916 9.1396 19.9169" fill="#789DC9"/>
</svg>
