<svg width="500" height="500" viewBox="0 0 500 500" xmlns="http://www.w3.org/2000/svg">
    <path d="M3.20032 17.3735V10.4441" stroke="#E74C3C" stroke-width="1.46581"/>
<mask id="mask0_78_604" style="mask-type:luminance" maskUnits="userSpaceOnUse" x="1" y="8" width="4" height="4">
<path d="M1.72833 8.97205H4.68178V11.9255H1.72833V8.97205Z" fill="white"/>
</mask>
<g mask="url(#mask0_78_604)">
<mask id="mask1_78_604" style="mask-type:luminance" maskUnits="userSpaceOnUse" x="1" y="8" width="4" height="4">
<path d="M3.20505 8.97205C2.38941 8.97205 1.72833 9.63312 1.72833 10.4488C1.72833 11.2644 2.38941 11.9255 3.20505 11.9255C4.0207 11.9255 4.68178 11.2644 4.68178 10.4488C4.68178 9.63312 4.0207 8.97205 3.20505 8.97205Z" fill="white"/>
</mask>
<g mask="url(#mask1_78_604)">
<path d="M1.72833 8.97205H4.68178V11.9255H1.72833V8.97205Z" fill="#1E4481"/>
</g>
</g>
<mask id="mask2_78_604" style="mask-type:luminance" maskUnits="userSpaceOnUse" x="1" y="8" width="4" height="4">
<path d="M1.72833 8.97205H4.40355V11.6496H1.72833V8.97205Z" fill="white"/>
</mask>
<g mask="url(#mask2_78_604)">
<mask id="mask3_78_604" style="mask-type:luminance" maskUnits="userSpaceOnUse" x="1" y="8" width="4" height="4">
<path d="M3.20268 8.97205C2.38703 8.97205 1.72833 9.63074 1.72833 10.4464C1.72833 11.2597 2.38703 11.9207 3.20268 11.9207C4.01594 11.9207 4.67702 11.2597 4.67702 10.4464C4.67702 9.63074 4.01594 8.97205 3.20268 8.97205Z" fill="white"/>
</mask>
<g mask="url(#mask3_78_604)">
<path d="M3.20268 8.97205C2.38703 8.97205 1.72833 9.63074 1.72833 10.4464C1.72833 11.2597 2.38703 11.9207 3.20268 11.9207C4.01594 11.9207 4.67702 11.2597 4.67702 10.4464C4.67702 9.63074 4.01594 8.97205 3.20268 8.97205Z" stroke="black" stroke-width="136"/>
</g>
</g>
<path d="M8.57973 29.467C7.01264 29.467 5.57635 29.1055 4.27084 28.3826C2.96296 27.655 1.92378 26.6372 1.15094 25.3293C0.382854 24.0238 0 22.5566 0 20.9253C0 19.2893 0.382854 17.8244 1.15094 16.5308C1.92378 15.2324 2.96296 14.217 4.27084 13.487C5.57635 12.7593 7.01264 12.3931 8.57973 12.3931C10.1444 12.3931 11.5807 12.7593 12.8886 13.487C14.1941 14.217 15.2214 15.2324 15.9705 16.5308C16.7243 17.8244 17.1024 19.2893 17.1024 20.9253C17.1024 22.5566 16.7219 24.0238 15.961 25.3293C15.2048 26.6372 14.1775 27.655 12.8791 28.3826C11.5784 29.1055 10.1444 29.467 8.57973 29.467ZM8.57973 25.7669C9.9114 25.7669 10.9767 25.3245 11.7757 24.4352C12.5747 23.5482 12.9742 22.3782 12.9742 20.9253C12.9742 19.4486 12.5747 18.2715 11.7757 17.3964C10.9767 16.5165 9.9114 16.0742 8.57973 16.0742C7.2338 16.0742 6.15895 16.5118 5.3552 17.3869C4.5562 18.2572 4.1567 19.4367 4.1567 20.9253C4.1567 22.3973 4.5562 23.5744 5.3552 24.4542C6.15895 25.3293 7.2338 25.7669 8.57973 25.7669Z" fill="#E74C3C"/>
<path d="M23.4217 17.9291C23.8141 17.3156 24.3586 16.8162 25.0578 16.4357C25.7545 16.0552 26.5702 15.865 27.5023 15.865C28.5986 15.865 29.5878 16.1408 30.47 16.6925C31.357 17.2442 32.0585 18.0385 32.5722 19.0705C33.0906 20.0978 33.3521 21.2939 33.3521 22.6565C33.3521 24.0214 33.0906 25.2223 32.5722 26.2615C32.0585 27.2959 31.357 28.0949 30.47 28.6585C29.5878 29.2173 28.5986 29.4955 27.5023 29.4955C26.582 29.4955 25.7712 29.3053 25.0673 28.9248C24.3634 28.5443 23.8141 28.0545 23.4217 27.4505V35.6212H19.3601V16.0552H23.4217V17.9291ZM29.2145 22.6565C29.2145 21.6435 28.9315 20.8468 28.3679 20.269C27.8091 19.6935 27.1171 19.4034 26.2943 19.4034C25.4882 19.4034 24.8033 19.6983 24.2397 20.288C23.6738 20.873 23.3932 21.6672 23.3932 22.6755C23.3932 23.6909 23.6738 24.4923 24.2397 25.082C24.8033 25.667 25.4882 25.9571 26.2943 25.9571C27.0981 25.9571 27.7877 25.6622 28.3584 25.0725C28.9291 24.478 29.2145 23.6719 29.2145 22.6565Z" fill="#E74C3C"/>
<path d="M39.5465 17.9291C39.9389 17.3156 40.4834 16.8162 41.1825 16.4357C41.8793 16.0552 42.6949 15.865 43.6271 15.865C44.7234 15.865 45.7126 16.1408 46.5948 16.6925C47.4818 17.2442 48.1833 18.0385 48.6969 19.0705C49.2153 20.0978 49.4769 21.2939 49.4769 22.6565C49.4769 24.0214 49.2153 25.2223 48.6969 26.2615C48.1833 27.2959 47.4818 28.0949 46.5948 28.6585C45.7126 29.2173 44.7234 29.4955 43.6271 29.4955C42.7068 29.4955 41.8959 29.3053 41.1921 28.9248C40.4882 28.5443 39.9389 28.0545 39.5465 27.4505V35.6212H35.4849V16.0552H39.5465V17.9291ZM45.3392 22.6565C45.3392 21.6435 45.0563 20.8468 44.4927 20.269C43.9339 19.6935 43.2419 19.4034 42.4191 19.4034C41.613 19.4034 40.9281 19.6983 40.3645 20.288C39.7986 20.873 39.518 21.6672 39.518 22.6755C39.518 23.6909 39.7986 24.4923 40.3645 25.082C40.9281 25.667 41.613 25.9571 42.4191 25.9571C43.2229 25.9571 43.9125 25.6622 44.4832 25.0725C45.0539 24.478 45.3392 23.6719 45.3392 22.6565Z" fill="#E74C3C"/>
<path d="M65.1451 16.0552L56.8317 35.6022H52.4658L55.5001 28.8582L50.1163 16.0552H54.644L57.7163 24.3401L60.7506 16.0552H65.1451Z" fill="#E74C3C"/>
<path d="M77.9049 12.631C79.6599 12.631 81.196 12.9805 82.5087 13.6773C83.8213 14.3764 84.8343 15.3561 85.5525 16.6165C86.2754 17.872 86.6368 19.325 86.6368 20.9729C86.6368 22.6042 86.2754 24.0524 85.5525 25.3199C84.8343 26.5826 83.8142 27.5623 82.4897 28.259C81.1699 28.9582 79.6408 29.3053 77.9049 29.3053H71.6556V12.631H77.9049ZM77.6386 25.7859C79.1724 25.7859 80.3685 25.3674 81.2246 24.5304C82.0806 23.6933 82.5087 22.5091 82.5087 20.9729C82.5087 19.432 82.0806 18.2382 81.2246 17.3869C80.3685 16.5309 79.1724 16.1028 77.6386 16.1028H75.7172V25.7859H77.6386Z" fill="#1E4481"/>
<path d="M101.409 22.4662C101.409 22.8467 101.386 23.2438 101.343 23.6552H92.1448C92.2066 24.4804 92.473 25.1106 92.9438 25.5481C93.4123 25.9809 93.9854 26.1949 94.6655 26.1949C95.6785 26.1949 96.3823 25.7669 96.7771 24.9108H101.105C100.881 25.7811 100.482 26.5635 99.9065 27.2602C99.3287 27.9594 98.6034 28.5063 97.7283 28.9058C96.8579 29.3005 95.8854 29.4955 94.8081 29.4955C93.5074 29.4955 92.3493 29.2197 91.3363 28.668C90.328 28.1116 89.5385 27.3173 88.9678 26.29C88.3971 25.2627 88.1118 24.0595 88.1118 22.6755C88.1118 21.301 88.39 20.0978 88.9488 19.0705C89.5124 18.0385 90.3019 17.2442 91.3173 16.6925C92.3303 16.1408 93.4955 15.865 94.8081 15.865C96.0875 15.865 97.2265 16.1361 98.2229 16.6735C99.224 17.2062 100.004 17.9743 100.563 18.9754C101.126 19.9718 101.409 21.1346 101.409 22.4662ZM97.2527 21.4009C97.2527 20.7042 97.0149 20.1501 96.5393 19.7363C96.0637 19.3249 95.4692 19.1181 94.7606 19.1181C94.0805 19.1181 93.5074 19.3178 93.0389 19.7173C92.5681 20.1121 92.2803 20.6733 92.1733 21.4009H97.2527Z" fill="#1E4481"/>
<path d="M110.93 25.862V29.3053H108.866C107.394 29.3053 106.246 28.9486 105.423 28.2305C104.598 27.5076 104.186 26.3329 104.186 24.7016V19.4225H102.569V16.0553H104.186V12.8212H108.248V16.0553H110.911V19.4225H108.248V24.7491C108.248 25.1439 108.343 25.4292 108.533 25.6052C108.723 25.7764 109.04 25.862 109.484 25.862H110.93Z" fill="#1E4481"/>
<path d="M125.68 22.4662C125.68 22.8467 125.656 23.2438 125.613 23.6552H116.415C116.477 24.4804 116.743 25.1106 117.214 25.5481C117.683 25.9809 118.256 26.1949 118.936 26.1949C119.949 26.1949 120.653 25.7669 121.047 24.9108H125.375C125.152 25.7811 124.752 26.5635 124.177 27.2602C123.599 27.9594 122.874 28.5063 121.999 28.9058C121.128 29.3005 120.156 29.4955 119.078 29.4955C117.778 29.4955 116.62 29.2197 115.607 28.668C114.598 28.1116 113.809 27.3173 113.238 26.29C112.667 25.2627 112.382 24.0595 112.382 22.6755C112.382 21.301 112.66 20.0978 113.219 19.0705C113.783 18.0385 114.572 17.2442 115.588 16.6925C116.601 16.1408 117.766 15.865 119.078 15.865C120.358 15.865 121.497 16.1361 122.493 16.6735C123.494 17.2062 124.274 17.9743 124.833 18.9754C125.397 19.9718 125.68 21.1346 125.68 22.4662ZM121.523 21.4009C121.523 20.7042 121.285 20.1501 120.81 19.7363C120.334 19.3249 119.74 19.1181 119.031 19.1181C118.351 19.1181 117.778 19.3178 117.309 19.7173C116.838 20.1121 116.551 20.6733 116.444 21.4009H121.523Z" fill="#1E4481"/>
<path d="M127.011 22.6755C127.011 21.301 127.289 20.0978 127.848 19.0705C128.411 18.0385 129.194 17.2442 130.197 16.6925C131.205 16.1408 132.359 15.865 133.66 15.865C135.319 15.865 136.708 16.3002 137.826 17.1681C138.941 18.0385 139.673 19.2655 140.023 20.8492H135.705C135.336 19.8362 134.632 19.3273 133.593 19.3273C132.844 19.3273 132.247 19.6198 131.805 20.2024C131.36 20.7803 131.139 21.6054 131.139 22.6755C131.139 23.7551 131.36 24.5826 131.805 25.1581C132.247 25.736 132.844 26.0237 133.593 26.0237C134.632 26.0237 135.336 25.5196 135.705 24.5113H140.023C139.673 26.0594 138.939 27.2769 137.816 28.1639C136.694 29.0532 135.307 29.4955 133.66 29.4955C132.359 29.4955 131.205 29.2197 130.197 28.668C129.194 28.1116 128.411 27.3173 127.848 26.29C127.289 25.2627 127.011 24.0595 127.011 22.6755Z" fill="#1E4481"/>
<path d="M149.568 25.862V29.3053H147.504C146.032 29.3053 144.883 28.9486 144.06 28.2305C143.235 27.5076 142.824 26.3329 142.824 24.7016V19.4225H141.207V16.0553H142.824V12.8212H146.886V16.0553H149.549V19.4225H146.886V24.7491C146.886 25.1439 146.981 25.4292 147.171 25.6052C147.361 25.7764 147.677 25.862 148.122 25.862H149.568Z" fill="#1E4481"/>
<path d="M157.859 29.4955C156.558 29.4955 155.388 29.2197 154.349 28.668C153.315 28.1116 152.499 27.3173 151.904 26.29C151.315 25.2627 151.02 24.0595 151.02 22.6755C151.02 21.3201 151.319 20.1216 151.923 19.08C152.525 18.0408 153.345 17.2442 154.387 16.6925C155.433 16.1408 156.606 15.865 157.906 15.865C159.205 15.865 160.375 16.1408 161.416 16.6925C162.463 17.2442 163.285 18.0408 163.889 19.08C164.491 20.1216 164.793 21.3201 164.793 22.6755C164.793 24.0405 164.489 25.2413 163.88 26.2805C163.271 27.3149 162.439 28.1116 161.388 28.668C160.334 29.2197 159.157 29.4955 157.859 29.4955ZM157.859 25.9761C158.632 25.9761 159.29 25.6955 159.837 25.1296C160.389 24.5589 160.665 23.7408 160.665 22.6755C160.665 21.6173 160.399 20.8017 159.866 20.231C159.333 19.6602 158.679 19.3749 157.906 19.3749C157.112 19.3749 156.453 19.6579 155.928 20.2214C155.407 20.7874 155.148 21.6054 155.148 22.6755C155.148 23.7408 155.405 24.5589 155.918 25.1296C156.437 25.6955 157.084 25.9761 157.859 25.9761Z" fill="#1E4481"/>
<path d="M171.017 18.262C171.493 17.5344 172.085 16.9589 172.796 16.5404C173.505 16.1219 174.299 15.9126 175.174 15.9126V20.212H174.052C173.043 20.212 172.285 20.4307 171.778 20.8683C171.269 21.3011 171.017 22.062 171.017 23.1512V29.3053H166.956V16.0553H171.017V18.262Z" fill="#1E4481"/>
<mask id="mask4_78_604" style="mask-type:luminance" maskUnits="userSpaceOnUse" x="172" y="10" width="10" height="9">
<path d="M172.99 10.3489H181.513V18.8716H172.99V10.3489Z" fill="white"/>
</mask>
<g mask="url(#mask4_78_604)">
<mask id="mask5_78_604" style="mask-type:luminance" maskUnits="userSpaceOnUse" x="167" y="-4" width="29" height="29">
<path d="M177.287 -3.30536L195.043 14.451L185.358 24.1365L167.602 6.38013L177.287 -3.30536Z" fill="white"/>
</mask>
<g mask="url(#mask5_78_604)">
<mask id="mask6_78_604" style="mask-type:luminance" maskUnits="userSpaceOnUse" x="167" y="-4" width="29" height="29">
<path d="M177.287 -3.30536L195.043 14.451L185.358 24.1365L167.602 6.38013L177.287 -3.30536Z" fill="white"/>
</mask>
<g mask="url(#mask6_78_604)">
<mask id="mask7_78_604" style="mask-type:luminance" maskUnits="userSpaceOnUse" x="172" y="8" width="11" height="12">
<path d="M175.185 8.89838L182.959 16.672L180.443 19.1879L172.669 11.4143L175.185 8.89838Z" fill="white"/>
</mask>
<g mask="url(#mask7_78_604)">
<path d="M173.245 11.9874C173.097 11.8423 173.007 11.6402 173.007 11.4167C173.007 10.972 173.368 10.6105 173.813 10.6105C174.816 10.6105 175.791 10.8079 176.707 11.1955C177.594 11.5712 178.388 12.1063 179.071 12.7888C179.753 13.4712 180.29 14.2655 180.664 15.1525C181.051 16.068 181.249 17.043 181.249 18.0465C181.249 18.4911 180.887 18.8526 180.443 18.8526C179.996 18.8526 179.634 18.4911 179.634 18.0465C179.634 16.4913 179.03 15.0288 177.929 13.9302C176.83 12.8292 175.368 12.2252 173.813 12.2252C173.592 12.2252 173.39 12.1348 173.245 11.9874Z" fill="#1E4481"/>
</g>
</g>
</g>
</g>
<mask id="mask8_78_604" style="mask-type:luminance" maskUnits="userSpaceOnUse" x="172" y="5" width="15" height="14">
<path d="M172.99 5.47882H186.383V18.8716H172.99V5.47882Z" fill="white"/>
</mask>
<g mask="url(#mask8_78_604)">
<mask id="mask9_78_604" style="mask-type:luminance" maskUnits="userSpaceOnUse" x="167" y="-4" width="29" height="29">
<path d="M177.287 -3.30542L195.043 14.4509L185.358 24.1364L167.602 6.38007L177.287 -3.30542Z" fill="white"/>
</mask>
<g mask="url(#mask9_78_604)">
<mask id="mask10_78_604" style="mask-type:luminance" maskUnits="userSpaceOnUse" x="167" y="-4" width="29" height="29">
<path d="M177.287 -3.30542L195.043 14.4509L185.358 24.1364L167.602 6.38007L177.287 -3.30542Z" fill="white"/>
</mask>
<g mask="url(#mask10_78_604)">
<path d="M184.875 18.6147C184.728 18.4696 184.637 18.2675 184.637 18.0464C184.637 12.0776 179.782 7.22182 173.813 7.22182C173.368 7.22182 173.007 6.86037 173.007 6.41331C173.007 5.96863 173.368 5.60718 173.813 5.60718C175.492 5.60718 177.121 5.93534 178.654 6.58453C180.136 7.21231 181.468 8.10881 182.609 9.25023C183.75 10.3917 184.647 11.7233 185.275 13.2048C185.924 14.7386 186.252 16.3675 186.252 18.0464C186.252 18.491 185.891 18.8525 185.446 18.8525C185.222 18.8525 185.02 18.7621 184.875 18.6147Z" fill="#1E4481"/>
</g>
</g>
</g>
<mask id="mask11_78_604" style="mask-type:luminance" maskUnits="userSpaceOnUse" x="172" y="0" width="20" height="19">
<path d="M172.99 0H191.862V18.8716H172.99V0Z" fill="white"/>
</mask>
<g mask="url(#mask11_78_604)">
<mask id="mask12_78_604" style="mask-type:luminance" maskUnits="userSpaceOnUse" x="167" y="-4" width="29" height="29">
<path d="M177.287 -3.30536L195.043 14.451L185.358 24.1365L167.602 6.38013L177.287 -3.30536Z" fill="white"/>
</mask>
<g mask="url(#mask12_78_604)">
<mask id="mask13_78_604" style="mask-type:luminance" maskUnits="userSpaceOnUse" x="167" y="-4" width="29" height="29">
<path d="M177.287 -3.30536L195.043 14.451L185.358 24.1365L167.602 6.38013L177.287 -3.30536Z" fill="white"/>
</mask>
<g mask="url(#mask13_78_604)">
<mask id="mask14_78_604" style="mask-type:luminance" maskUnits="userSpaceOnUse" x="172" y="-4" width="24" height="24">
<path d="M177.28 -3.29822L195.158 14.5794L190.544 19.1927L172.667 1.31505L177.28 -3.29822Z" fill="white"/>
</mask>
<g mask="url(#mask14_78_604)">
<path d="M189.981 18.6172C189.833 18.4697 189.743 18.2676 189.743 18.0465C189.743 9.26223 182.597 2.11641 173.813 2.11641C173.368 2.11641 173.007 1.75496 173.007 1.3079C173.007 0.863222 173.368 0.50177 173.813 0.50177C176.181 0.50177 178.478 0.965475 180.642 1.88099C181.682 2.32092 182.685 2.86548 183.622 3.49802C184.552 4.1258 185.424 4.84633 186.219 5.64057C187.013 6.43481 187.734 7.30753 188.361 8.23732C188.994 9.17424 189.538 10.1777 189.978 11.2169C190.894 13.3809 191.358 15.678 191.358 18.0465C191.358 18.4911 190.996 18.8526 190.551 18.8526C190.328 18.8526 190.126 18.7622 189.981 18.6172Z" fill="#1E4481"/>
</g>
</g>
</g>
</g>
<mask id="mask15_78_604" style="mask-type:luminance" maskUnits="userSpaceOnUse" x="3" y="15" width="11" height="12">
<path d="M3.20508 15.8397H13.7062V26.3409H3.20508V15.8397Z" fill="white"/>
</mask>
<g mask="url(#mask15_78_604)">
<path d="M3.20508 21.1521C3.20508 18.2177 5.58305 15.8397 8.51509 15.8397C11.4495 15.8397 13.8275 18.2177 13.8275 21.1521C13.8275 24.0842 11.4495 26.4621 8.51509 26.4621C5.58305 26.4621 3.20508 24.0842 3.20508 21.1521Z" fill="#E74C3C"/>
</g>
<path d="M11.742 22.5456C11.3829 22.9046 10.8835 23.1282 10.3342 23.1282H6.69591C5.59729 23.1282 4.70555 22.2364 4.70555 21.1354C4.70555 20.5861 4.92908 20.0891 5.28815 19.7277C5.6496 19.3686 6.1466 19.145 6.69591 19.145H10.3342C11.4352 19.145 12.327 20.0368 12.327 21.1354C12.327 21.6871 12.1034 22.1841 11.742 22.5456ZM12.0963 19.3733C11.868 19.145 11.6017 18.9643 11.3044 18.8383C10.9977 18.7099 10.6719 18.6433 10.3342 18.6433H8.6625V18.113C8.80518 18.0536 8.90743 17.9133 8.90743 17.7492C8.90743 17.5328 8.73146 17.3568 8.51506 17.3568C8.29867 17.3568 8.1227 17.5328 8.1227 17.7492C8.1227 17.9133 8.22495 18.0536 8.36763 18.113V18.6433H6.69591C6.36062 18.6433 6.03246 18.7099 5.7257 18.8383C5.42845 18.9643 5.16212 19.145 4.93383 19.3733C4.70555 19.6016 4.52482 19.868 4.39879 20.1652C4.268 20.4743 4.2038 20.8001 4.2038 21.1354C4.2038 21.4731 4.268 21.7989 4.39879 22.108C4.52482 22.4029 4.70555 22.6716 4.93383 22.8999C5.16212 23.1282 5.42845 23.3089 5.7257 23.4325C6.03246 23.5633 6.36062 23.6299 6.69591 23.6299H6.72683C7.54247 23.6299 8.22971 24.1745 8.44372 24.9188C8.45324 24.9497 8.48177 24.9711 8.51506 24.9711C8.54836 24.9711 8.57689 24.9497 8.5864 24.9188C8.8028 24.1745 9.49003 23.6299 10.3033 23.6299H10.3342C10.6719 23.6299 10.9977 23.5633 11.3044 23.4325C11.6017 23.3089 11.868 23.1282 12.0963 22.8999C12.327 22.6716 12.5053 22.4029 12.6313 22.108C12.7621 21.7989 12.8287 21.4731 12.8287 21.1354C12.8287 20.8001 12.7621 20.4743 12.6313 20.1652C12.5053 19.868 12.327 19.6016 12.0963 19.3733Z" fill="white"/>
<path d="M10.3509 20.4172C9.94422 20.4172 9.61606 20.7478 9.61606 21.152C9.61606 21.5563 9.94422 21.8868 10.3509 21.8868C10.7551 21.8868 11.0833 21.5563 11.0833 21.152C11.0833 20.7478 10.7551 20.4172 10.3509 20.4172Z" fill="white"/>
<path d="M6.69592 20.4172C6.29166 20.4172 5.9635 20.7478 5.9635 21.152C5.9635 21.5563 6.29166 21.8868 6.69592 21.8868C7.10255 21.8868 7.43071 21.5563 7.43071 21.152C7.43071 20.7478 7.10255 20.4172 6.69592 20.4172Z" fill="white"/>
</svg>
