<svg width="192" height="36" viewBox="0 0 192 36" fill="none" xmlns="http://www.w3.org/2000/svg">
<path d="M3.20032 17.373V10.4436" stroke="#7DBABD" stroke-width="1.46581"/>
<mask id="mask0_122_885" style="mask-type:luminance" maskUnits="userSpaceOnUse" x="1" y="8" width="4" height="4">
<path d="M1.72833 8.97168H4.68178V11.9251H1.72833V8.97168Z" fill="white"/>
</mask>
<g mask="url(#mask0_122_885)">
<mask id="mask1_122_885" style="mask-type:luminance" maskUnits="userSpaceOnUse" x="1" y="8" width="4" height="4">
<path d="M3.20505 8.97168C2.38941 8.97168 1.72833 9.63276 1.72833 10.4484C1.72833 11.264 2.38941 11.9251 3.20505 11.9251C4.0207 11.9251 4.68178 11.264 4.68178 10.4484C4.68178 9.63276 4.0207 8.97168 3.20505 8.97168Z" fill="white"/>
</mask>
<g mask="url(#mask1_122_885)">
<path d="M1.72833 8.97168H4.68178V11.9251H1.72833V8.97168Z" fill="#E74C3C"/>
</g>
</g>
<mask id="mask2_122_885" style="mask-type:luminance" maskUnits="userSpaceOnUse" x="1" y="8" width="4" height="4">
<path d="M1.72833 8.97168H4.40355V11.6493H1.72833V8.97168Z" fill="white"/>
</mask>
<g mask="url(#mask2_122_885)">
<mask id="mask3_122_885" style="mask-type:luminance" maskUnits="userSpaceOnUse" x="1" y="8" width="4" height="4">
<path d="M3.20268 8.97168C2.38703 8.97168 1.72833 9.63038 1.72833 10.446C1.72833 11.2593 2.38703 11.9204 3.20268 11.9204C4.01594 11.9204 4.67702 11.2593 4.67702 10.446C4.67702 9.63038 4.01594 8.97168 3.20268 8.97168Z" fill="white"/>
</mask>
<g mask="url(#mask3_122_885)">
<path d="M3.20268 8.97168C2.38703 8.97168 1.72833 9.63038 1.72833 10.446C1.72833 11.2593 2.38703 11.9204 3.20268 11.9204C4.01594 11.9204 4.67702 11.2593 4.67702 10.446C4.67702 9.63038 4.01594 8.97168 3.20268 8.97168Z" stroke="black" stroke-width="136"/>
</g>
</g>
<path d="M8.57973 29.4674C7.01264 29.4674 5.57635 29.106 4.27084 28.3831C2.96296 27.6554 1.92378 26.6376 1.15094 25.3297C0.382854 24.0242 0 22.557 0 20.9257C0 19.2897 0.382854 17.8248 1.15094 16.5312C1.92378 15.2329 2.96296 14.2175 4.27084 13.4874C5.57635 12.7598 7.01264 12.3936 8.57973 12.3936C10.1444 12.3936 11.5807 12.7598 12.8886 13.4874C14.1941 14.2175 15.2214 15.2329 15.9705 16.5312C16.7243 17.8248 17.1024 19.2897 17.1024 20.9257C17.1024 22.557 16.7219 24.0242 15.961 25.3297C15.2048 26.6376 14.1775 27.6554 12.8791 28.3831C11.5784 29.106 10.1444 29.4674 8.57973 29.4674ZM8.57973 25.7673C9.9114 25.7673 10.9767 25.325 11.7757 24.4356C12.5747 23.5486 12.9742 22.3787 12.9742 20.9257C12.9742 19.449 12.5747 18.2719 11.7757 17.3968C10.9767 16.517 9.9114 16.0747 8.57973 16.0747C7.2338 16.0747 6.15895 16.5122 5.3552 17.3873C4.5562 18.2576 4.1567 19.4371 4.1567 20.9257C4.1567 22.3977 4.5562 23.5748 5.3552 24.4546C6.15895 25.3297 7.2338 25.7673 8.57973 25.7673Z" fill="#7DBABD"/>
<path d="M23.4217 17.9293C23.8141 17.3158 24.3586 16.8164 25.0578 16.4359C25.7545 16.0555 26.5702 15.8652 27.5023 15.8652C28.5986 15.8652 29.5878 16.1411 30.47 16.6928C31.357 17.2445 32.0585 18.0387 32.5722 19.0707C33.0906 20.098 33.3521 21.2941 33.3521 22.6567C33.3521 24.0217 33.0906 25.2226 32.5722 26.2617C32.0585 27.2962 31.357 28.0952 30.47 28.6587C29.5878 29.2176 28.5986 29.4958 27.5023 29.4958C26.582 29.4958 25.7712 29.3055 25.0673 28.9251C24.3634 28.5446 23.8141 28.0547 23.4217 27.4507V35.6214H19.3601V16.0555H23.4217V17.9293ZM29.2145 22.6567C29.2145 21.6437 28.9315 20.8471 28.3679 20.2692C27.8091 19.6938 27.1171 19.4037 26.2943 19.4037C25.4882 19.4037 24.8033 19.6985 24.2397 20.2883C23.6738 20.8732 23.3932 21.6675 23.3932 22.6758C23.3932 23.6911 23.6738 24.4925 24.2397 25.0823C24.8033 25.6672 25.4882 25.9574 26.2943 25.9574C27.0981 25.9574 27.7877 25.6625 28.3584 25.0728C28.9291 24.4783 29.2145 23.6721 29.2145 22.6567Z" fill="#7DBABD"/>
<path d="M39.5465 17.9293C39.9389 17.3158 40.4834 16.8164 41.1825 16.4359C41.8793 16.0555 42.6949 15.8652 43.6271 15.8652C44.7234 15.8652 45.7126 16.1411 46.5948 16.6928C47.4818 17.2445 48.1833 18.0387 48.6969 19.0707C49.2153 20.098 49.4769 21.2941 49.4769 22.6567C49.4769 24.0217 49.2153 25.2226 48.6969 26.2617C48.1833 27.2962 47.4818 28.0952 46.5948 28.6587C45.7126 29.2176 44.7234 29.4958 43.6271 29.4958C42.7068 29.4958 41.8959 29.3055 41.1921 28.9251C40.4882 28.5446 39.9389 28.0547 39.5465 27.4507V35.6214H35.4849V16.0555H39.5465V17.9293ZM45.3392 22.6567C45.3392 21.6437 45.0563 20.8471 44.4927 20.2692C43.9339 19.6938 43.2419 19.4037 42.4191 19.4037C41.613 19.4037 40.9281 19.6985 40.3645 20.2883C39.7986 20.8732 39.518 21.6675 39.518 22.6758C39.518 23.6911 39.7986 24.4925 40.3645 25.0823C40.9281 25.6672 41.613 25.9574 42.4191 25.9574C43.2229 25.9574 43.9125 25.6625 44.4832 25.0728C45.0539 24.4783 45.3392 23.6721 45.3392 22.6567Z" fill="#7DBABD"/>
<path d="M65.1451 16.0557L56.8317 35.6026H52.4658L55.5001 28.8587L50.1163 16.0557H54.644L57.7163 24.3405L60.7506 16.0557H65.1451Z" fill="#7DBABD"/>
<path d="M77.9049 12.6309C79.6599 12.6309 81.196 12.9804 82.5087 13.6772C83.8213 14.3763 84.8343 15.356 85.5525 16.6163C86.2754 17.8719 86.6368 19.3249 86.6368 20.9728C86.6368 22.6041 86.2754 24.0523 85.5525 25.3197C84.8343 26.5824 83.8142 27.5622 82.4897 28.2589C81.1699 28.958 79.6408 29.3052 77.9049 29.3052H71.6556V12.6309H77.9049ZM77.6386 25.7858C79.1724 25.7858 80.3685 25.3673 81.2246 24.5302C82.0806 23.6932 82.5087 22.509 82.5087 20.9728C82.5087 19.4319 82.0806 18.2381 81.2246 17.3868C80.3685 16.5307 79.1724 16.1027 77.6386 16.1027H75.7172V25.7858H77.6386Z" fill="#E74C3C"/>
<path d="M101.409 22.4665C101.409 22.847 101.386 23.2441 101.343 23.6555H92.1448C92.2066 24.4806 92.473 25.1108 92.9438 25.5483C93.4123 25.9811 93.9854 26.1952 94.6655 26.1952C95.6785 26.1952 96.3823 25.7671 96.7771 24.911H101.105C100.881 25.7814 100.482 26.5637 99.9065 27.2605C99.3287 27.9596 98.6034 28.5065 97.7283 28.906C96.8579 29.3008 95.8854 29.4958 94.8081 29.4958C93.5074 29.4958 92.3493 29.2199 91.3363 28.6682C90.328 28.1118 89.5385 27.3176 88.9678 26.2903C88.3971 25.263 88.1118 24.0597 88.1118 22.6758C88.1118 21.3013 88.39 20.098 88.9488 19.0707C89.5124 18.0387 90.3019 17.2445 91.3173 16.6928C92.3303 16.1411 93.4955 15.8652 94.8081 15.8652C96.0875 15.8652 97.2265 16.1363 98.2229 16.6737C99.224 17.2064 100.004 17.9745 100.563 18.9756C101.126 19.972 101.409 21.1348 101.409 22.4665ZM97.2527 21.4012C97.2527 20.7044 97.0149 20.1503 96.5393 19.7366C96.0637 19.3252 95.4692 19.1183 94.7606 19.1183C94.0805 19.1183 93.5074 19.3181 93.0389 19.7176C92.5681 20.1123 92.2803 20.6735 92.1733 21.4012H97.2527Z" fill="#E74C3C"/>
<path d="M110.93 25.8621V29.3054H108.866C107.394 29.3054 106.246 28.9487 105.423 28.2306C104.598 27.5077 104.186 26.3329 104.186 24.7016V19.4225H102.569V16.0553H104.186V12.8213H108.248V16.0553H110.911V19.4225H108.248V24.7492C108.248 25.1439 108.343 25.4293 108.533 25.6053C108.723 25.7765 109.04 25.8621 109.484 25.8621H110.93Z" fill="#E74C3C"/>
<path d="M125.68 22.4665C125.68 22.847 125.656 23.2441 125.613 23.6555H116.415C116.477 24.4806 116.743 25.1108 117.214 25.5483C117.683 25.9811 118.256 26.1952 118.936 26.1952C119.949 26.1952 120.653 25.7671 121.047 24.911H125.375C125.152 25.7814 124.752 26.5637 124.177 27.2605C123.599 27.9596 122.874 28.5065 121.999 28.906C121.128 29.3008 120.156 29.4958 119.078 29.4958C117.778 29.4958 116.62 29.2199 115.607 28.6682C114.598 28.1118 113.809 27.3176 113.238 26.2903C112.667 25.263 112.382 24.0597 112.382 22.6758C112.382 21.3013 112.66 20.098 113.219 19.0707C113.783 18.0387 114.572 17.2445 115.588 16.6928C116.601 16.1411 117.766 15.8652 119.078 15.8652C120.358 15.8652 121.497 16.1363 122.493 16.6737C123.494 17.2064 124.274 17.9745 124.833 18.9756C125.397 19.972 125.68 21.1348 125.68 22.4665ZM121.523 21.4012C121.523 20.7044 121.285 20.1503 120.81 19.7366C120.334 19.3252 119.74 19.1183 119.031 19.1183C118.351 19.1183 117.778 19.3181 117.309 19.7176C116.838 20.1123 116.551 20.6735 116.444 21.4012H121.523Z" fill="#E74C3C"/>
<path d="M127.011 22.6758C127.011 21.3013 127.289 20.098 127.848 19.0707C128.411 18.0387 129.194 17.2445 130.197 16.6928C131.205 16.1411 132.359 15.8652 133.66 15.8652C135.319 15.8652 136.708 16.3004 137.826 17.1684C138.941 18.0387 139.673 19.2657 140.023 20.8495H135.705C135.336 19.8365 134.632 19.3276 133.593 19.3276C132.844 19.3276 132.247 19.6201 131.805 20.2027C131.36 20.7805 131.139 21.6057 131.139 22.6758C131.139 23.7554 131.36 24.5829 131.805 25.1584C132.247 25.7362 132.844 26.0239 133.593 26.0239C134.632 26.0239 135.336 25.5198 135.705 24.5115H140.023C139.673 26.0596 138.939 27.2771 137.816 28.1641C136.694 29.0535 135.307 29.4958 133.66 29.4958C132.359 29.4958 131.205 29.2199 130.197 28.6682C129.194 28.1118 128.411 27.3176 127.848 26.2903C127.289 25.263 127.011 24.0597 127.011 22.6758Z" fill="#E74C3C"/>
<path d="M149.568 25.8621V29.3054H147.504C146.032 29.3054 144.883 28.9487 144.06 28.2306C143.235 27.5077 142.824 26.3329 142.824 24.7016V19.4225H141.207V16.0553H142.824V12.8213H146.886V16.0553H149.549V19.4225H146.886V24.7492C146.886 25.1439 146.981 25.4293 147.171 25.6053C147.361 25.7765 147.677 25.8621 148.122 25.8621H149.568Z" fill="#E74C3C"/>
<path d="M157.859 29.4958C156.558 29.4958 155.388 29.2199 154.349 28.6682C153.315 28.1118 152.499 27.3176 151.904 26.2903C151.315 25.263 151.02 24.0597 151.02 22.6758C151.02 21.3203 151.319 20.1218 151.923 19.0803C152.525 18.0411 153.345 17.2445 154.387 16.6928C155.433 16.1411 156.606 15.8652 157.906 15.8652C159.205 15.8652 160.375 16.1411 161.416 16.6928C162.463 17.2445 163.285 18.0411 163.889 19.0803C164.491 20.1218 164.793 21.3203 164.793 22.6758C164.793 24.0407 164.489 25.2416 163.88 26.2808C163.271 27.3152 162.439 28.1118 161.388 28.6682C160.334 29.2199 159.157 29.4958 157.859 29.4958ZM157.859 25.9764C158.632 25.9764 159.29 25.6958 159.837 25.1298C160.389 24.5591 160.665 23.7411 160.665 22.6758C160.665 21.6176 160.399 20.8019 159.866 20.2312C159.333 19.6605 158.679 19.3751 157.906 19.3751C157.112 19.3751 156.453 19.6581 155.928 20.2217C155.407 20.7876 155.148 21.6057 155.148 22.6758C155.148 23.7411 155.405 24.5591 155.918 25.1298C156.437 25.6958 157.084 25.9764 157.859 25.9764Z" fill="#E74C3C"/>
<path d="M171.017 18.2625C171.493 17.5349 172.085 16.9594 172.796 16.5409C173.505 16.1223 174.299 15.9131 175.174 15.9131V20.2125H174.052C173.043 20.2125 172.285 20.4312 171.778 20.8688C171.269 21.3016 171.017 22.0625 171.017 23.1516V29.3058H166.956V16.0558H171.017V18.2625Z" fill="#E74C3C"/>
<mask id="mask4_122_885" style="mask-type:luminance" maskUnits="userSpaceOnUse" x="172" y="10" width="10" height="9">
<path d="M172.99 10.3486H181.513V18.8713H172.99V10.3486Z" fill="white"/>
</mask>
<g mask="url(#mask4_122_885)">
<mask id="mask5_122_885" style="mask-type:luminance" maskUnits="userSpaceOnUse" x="167" y="-4" width="29" height="29">
<path d="M177.287 -3.30566L195.043 14.4507L185.358 24.1362L167.602 6.37982L177.287 -3.30566Z" fill="white"/>
</mask>
<g mask="url(#mask5_122_885)">
<mask id="mask6_122_885" style="mask-type:luminance" maskUnits="userSpaceOnUse" x="167" y="-4" width="29" height="29">
<path d="M177.287 -3.30566L195.043 14.4507L185.358 24.1362L167.602 6.37982L177.287 -3.30566Z" fill="white"/>
</mask>
<g mask="url(#mask6_122_885)">
<mask id="mask7_122_885" style="mask-type:luminance" maskUnits="userSpaceOnUse" x="172" y="8" width="11" height="12">
<path d="M175.185 8.89844L182.959 16.672L180.443 19.1879L172.669 11.4143L175.185 8.89844Z" fill="white"/>
</mask>
<g mask="url(#mask7_122_885)">
<path d="M173.245 11.9872C173.097 11.8421 173.007 11.64 173.007 11.4165C173.007 10.9718 173.368 10.6104 173.813 10.6104C174.816 10.6104 175.791 10.8077 176.707 11.1953C177.594 11.5711 178.388 12.1061 179.071 12.7886C179.753 13.4711 180.29 14.2653 180.664 15.1523C181.051 16.0678 181.249 17.0428 181.249 18.0463C181.249 18.491 180.887 18.8524 180.443 18.8524C179.996 18.8524 179.634 18.491 179.634 18.0463C179.634 16.4911 179.03 15.0286 177.929 13.93C176.83 12.829 175.368 12.225 173.813 12.225C173.592 12.225 173.39 12.1346 173.245 11.9872Z" fill="#E74C3C"/>
</g>
</g>
</g>
</g>
<mask id="mask8_122_885" style="mask-type:luminance" maskUnits="userSpaceOnUse" x="172" y="5" width="15" height="14">
<path d="M172.99 5.47852H186.383V18.8713H172.99V5.47852Z" fill="white"/>
</mask>
<g mask="url(#mask8_122_885)">
<mask id="mask9_122_885" style="mask-type:luminance" maskUnits="userSpaceOnUse" x="167" y="-4" width="29" height="29">
<path d="M177.287 -3.30566L195.043 14.4507L185.358 24.1362L167.602 6.37982L177.287 -3.30566Z" fill="white"/>
</mask>
<g mask="url(#mask9_122_885)">
<mask id="mask10_122_885" style="mask-type:luminance" maskUnits="userSpaceOnUse" x="167" y="-4" width="29" height="29">
<path d="M177.287 -3.30566L195.043 14.4507L185.358 24.1362L167.602 6.37982L177.287 -3.30566Z" fill="white"/>
</mask>
<g mask="url(#mask10_122_885)">
<path d="M184.875 18.6149C184.728 18.4699 184.637 18.2678 184.637 18.0466C184.637 12.0779 179.782 7.22207 173.813 7.22207C173.368 7.22207 173.007 6.86061 173.007 6.41356C173.007 5.96887 173.368 5.60742 173.813 5.60742C175.492 5.60742 177.121 5.93558 178.654 6.58477C180.136 7.21255 181.468 8.10905 182.609 9.25048C183.75 10.3919 184.647 11.7236 185.275 13.205C185.924 14.7388 186.252 16.3678 186.252 18.0466C186.252 18.4913 185.891 18.8527 185.446 18.8527C185.222 18.8527 185.02 18.7624 184.875 18.6149Z" fill="#E74C3C"/>
</g>
</g>
</g>
<mask id="mask11_122_885" style="mask-type:luminance" maskUnits="userSpaceOnUse" x="172" y="0" width="20" height="19">
<path d="M172.99 0H191.862V18.8716H172.99V0Z" fill="white"/>
</mask>
<g mask="url(#mask11_122_885)">
<mask id="mask12_122_885" style="mask-type:luminance" maskUnits="userSpaceOnUse" x="167" y="-4" width="29" height="29">
<path d="M177.287 -3.30566L195.043 14.4507L185.358 24.1362L167.602 6.37982L177.287 -3.30566Z" fill="white"/>
</mask>
<g mask="url(#mask12_122_885)">
<mask id="mask13_122_885" style="mask-type:luminance" maskUnits="userSpaceOnUse" x="167" y="-4" width="29" height="29">
<path d="M177.287 -3.30566L195.043 14.4507L185.358 24.1362L167.602 6.37982L177.287 -3.30566Z" fill="white"/>
</mask>
<g mask="url(#mask13_122_885)">
<mask id="mask14_122_885" style="mask-type:luminance" maskUnits="userSpaceOnUse" x="172" y="-4" width="24" height="24">
<path d="M177.28 -3.29883L195.158 14.5788L190.544 19.192L172.667 1.31444L177.28 -3.29883Z" fill="white"/>
</mask>
<g mask="url(#mask14_122_885)">
<path d="M189.981 18.6164C189.833 18.4689 189.743 18.2668 189.743 18.0457C189.743 9.26143 182.597 2.11562 173.813 2.11562C173.368 2.11562 173.007 1.75417 173.007 1.30711C173.007 0.862428 173.368 0.500977 173.813 0.500977C176.181 0.500977 178.478 0.964682 180.642 1.8802C181.682 2.32013 182.685 2.86468 183.622 3.49722C184.552 4.12501 185.424 4.84554 186.219 5.63978C187.013 6.43402 187.734 7.30674 188.361 8.23653C188.994 9.17345 189.538 10.177 189.978 11.2161C190.894 13.3801 191.358 15.6772 191.358 18.0457C191.358 18.4903 190.996 18.8518 190.551 18.8518C190.328 18.8518 190.126 18.7614 189.981 18.6164Z" fill="#E74C3C"/>
</g>
</g>
</g>
</g>
<mask id="mask15_122_885" style="mask-type:luminance" maskUnits="userSpaceOnUse" x="3" y="15" width="11" height="12">
<path d="M3.20508 15.8398H13.7062V26.341H3.20508V15.8398Z" fill="white"/>
</mask>
<g mask="url(#mask15_122_885)">
<path d="M3.20508 21.1522C3.20508 18.2178 5.58305 15.8398 8.51509 15.8398C11.4495 15.8398 13.8275 18.2178 13.8275 21.1522C13.8275 24.0843 11.4495 26.4623 8.51509 26.4623C5.58305 26.4623 3.20508 24.0843 3.20508 21.1522Z" fill="#7DBABD"/>
</g>
<path d="M11.742 22.5452C11.3829 22.9043 10.8835 23.1278 10.3342 23.1278H6.69591C5.59729 23.1278 4.70555 22.236 4.70555 21.135C4.70555 20.5857 4.92908 20.0887 5.28815 19.7273C5.6496 19.3682 6.1466 19.1447 6.69591 19.1447H10.3342C11.4352 19.1447 12.327 20.0364 12.327 21.135C12.327 21.6867 12.1034 22.1837 11.742 22.5452ZM12.0963 19.373C11.868 19.1447 11.6017 18.964 11.3044 18.8379C10.9977 18.7095 10.6719 18.6429 10.3342 18.6429H8.6625V18.1126C8.80518 18.0532 8.90743 17.9129 8.90743 17.7488C8.90743 17.5324 8.73146 17.3564 8.51506 17.3564C8.29867 17.3564 8.1227 17.5324 8.1227 17.7488C8.1227 17.9129 8.22495 18.0532 8.36763 18.1126V18.6429H6.69591C6.36062 18.6429 6.03246 18.7095 5.7257 18.8379C5.42845 18.964 5.16212 19.1447 4.93383 19.373C4.70555 19.6013 4.52482 19.8676 4.39879 20.1648C4.268 20.474 4.2038 20.7998 4.2038 21.135C4.2038 21.4727 4.268 21.7985 4.39879 22.1076C4.52482 22.4025 4.70555 22.6712 4.93383 22.8995C5.16212 23.1278 5.42845 23.3085 5.7257 23.4322C6.03246 23.563 6.36062 23.6295 6.69591 23.6295H6.72683C7.54247 23.6295 8.22971 24.1741 8.44372 24.9184C8.45324 24.9493 8.48177 24.9707 8.51506 24.9707C8.54836 24.9707 8.57689 24.9493 8.5864 24.9184C8.8028 24.1741 9.49003 23.6295 10.3033 23.6295H10.3342C10.6719 23.6295 10.9977 23.563 11.3044 23.4322C11.6017 23.3085 11.868 23.1278 12.0963 22.8995C12.327 22.6712 12.5053 22.4025 12.6313 22.1076C12.7621 21.7985 12.8287 21.4727 12.8287 21.135C12.8287 20.7998 12.7621 20.474 12.6313 20.1648C12.5053 19.8676 12.327 19.6013 12.0963 19.373Z" fill="white"/>
<path d="M10.3509 20.417C9.94422 20.417 9.61606 20.7475 9.61606 21.1518C9.61606 21.556 9.94422 21.8866 10.3509 21.8866C10.7551 21.8866 11.0833 21.556 11.0833 21.1518C11.0833 20.7475 10.7551 20.417 10.3509 20.417Z" fill="white"/>
<path d="M6.69592 20.417C6.29166 20.417 5.9635 20.7475 5.9635 21.1518C5.9635 21.556 6.29166 21.8866 6.69592 21.8866C7.10255 21.8866 7.43071 21.556 7.43071 21.1518C7.43071 20.7475 7.10255 20.417 6.69592 20.417Z" fill="white"/>
</svg>
