<svg width="19" height="19" viewBox="0 0 19 19" fill="none" xmlns="http://www.w3.org/2000/svg">
<path fill-rule="evenodd" clip-rule="evenodd" d="M1 9.5C0.999849 12.6729 2.76693 15.5818 5.58283 17.044C8.39874 18.5062 11.7946 18.2783 14.3899 16.453L18 16.7857V9.5C18 4.80558 14.1944 1 9.5 1C4.80558 1 1 4.80558 1 9.5Z" stroke="#1E4481" stroke-width="1.5" stroke-linecap="round" stroke-linejoin="round"/>
<path d="M5.85712 11.1786C5.4429 11.1786 5.10712 11.5144 5.10712 11.9286C5.10712 12.3428 5.4429 12.6786 5.85712 12.6786V11.1786ZM10.7143 12.6786C11.1285 12.6786 11.4643 12.3428 11.4643 11.9286C11.4643 11.5144 11.1285 11.1786 10.7143 11.1786V12.6786ZM5.85712 7.53571C5.4429 7.53571 5.10712 7.87149 5.10712 8.28571C5.10712 8.69992 5.4429 9.03571 5.85712 9.03571V7.53571ZM13.1428 9.03571C13.557 9.03571 13.8928 8.69992 13.8928 8.28571C13.8928 7.87149 13.557 7.53571 13.1428 7.53571V9.03571ZM5.85712 12.6786H10.7143V11.1786H5.85712V12.6786ZM5.85712 9.03571H13.1428V7.53571H5.85712V9.03571Z" fill="#1E4481"/>
</svg>
