<svg width="16" height="19" viewBox="0 0 16 19" fill="none" xmlns="http://www.w3.org/2000/svg">
<path d="M14.5458 11.2064V6.57566C14.5458 4.83168 13.8562 3.15914 12.6286 1.92596C11.401 0.69279 9.73605 0 8 0C6.26395 0 4.599 0.69279 3.37142 1.92596C2.14384 3.15914 1.4542 4.83168 1.4542 6.57566V11.2064C0.932115 11.4553 0.509871 11.8752 0.256887 12.3972C0.00390247 12.9191 -0.0647649 13.512 0.0621741 14.0783C0.189113 14.6447 0.504103 15.1508 0.955358 15.5134C1.40661 15.8761 1.96727 16.0737 2.54517 16.0738H4.43618C4.6031 16.8996 5.0491 17.6421 5.6986 18.1754C6.3481 18.7087 7.16115 19 8 19C8.83885 19 9.6519 18.7087 10.3014 18.1754C10.9509 17.6421 11.3969 16.8996 11.5638 16.0738H13.4548C14.0327 16.0737 14.5934 15.8761 15.0446 15.5134C15.4959 15.1508 15.8109 14.6447 15.9378 14.0783C16.0648 13.512 15.9961 12.9191 15.7431 12.3972C15.4901 11.8752 15.0679 11.4553 14.5458 11.2064ZM8 17.5351C7.55033 17.5332 7.11222 17.3918 6.74561 17.1302C6.37899 16.8687 6.10178 16.4997 5.95189 16.0738H10.0481C9.89822 16.4997 9.62101 16.8687 9.25439 17.1302C8.88778 17.3918 8.44967 17.5332 8 17.5351ZM13.4548 14.6126H2.54517C2.27462 14.6128 2.01362 14.5121 1.81284 14.33C1.61206 14.1478 1.48582 13.8972 1.45863 13.6268C1.43144 13.3564 1.50524 13.0854 1.6657 12.8666C1.82616 12.6478 2.06183 12.4967 2.32697 12.4426C2.49125 12.4089 2.6389 12.3192 2.74493 12.1888C2.85096 12.0583 2.90886 11.895 2.90882 11.7266V6.57566C2.90882 5.21923 3.44521 3.91837 4.39999 2.95923C5.35477 2.00009 6.64974 1.46126 8 1.46126C9.35026 1.46126 10.6452 2.00009 11.6 2.95923C12.5548 3.91837 13.0912 5.21923 13.0912 6.57566V11.7266C13.0911 11.895 13.149 12.0583 13.2551 12.1888C13.3611 12.3192 13.5087 12.4089 13.673 12.4426C13.9382 12.4967 14.1738 12.6478 14.3343 12.8666C14.4948 13.0854 14.5686 13.3564 14.5414 13.6268C14.5142 13.8972 14.3879 14.1478 14.1872 14.33C13.9864 14.5121 13.7254 14.6128 13.4548 14.6126Z" fill="#1E4481"/>
</svg>
